<svg width="130" height="37" viewBox="0 0 130 37" fill="none" xmlns="http://www.w3.org/2000/svg">
<path d="M30.3281 29.5H17.7656V28.2344H21.0938L17.5781 19.2344H8.25L4.875 28.2344H7.5C7.6875 28.2344 7.85938 28.25 8.01562 28.2812C8.42188 28.3438 8.625 28.75 8.625 29.5H0V28.2344H3L13.2656 1.375H16.7344L27.7969 28.2344H29.2031C29.3906 28.2344 29.5625 28.25 29.7188 28.2812C30.125 28.3438 30.3281 28.75 30.3281 29.5ZM17.0156 17.8281L12.8438 7.04688L8.8125 17.8281H17.0156ZM54.8906 10.375H53.5312L52.5 7.14062C52.4062 6.85938 52.2969 6.57812 52.1719 6.29688C51.2031 3.85938 49.4375 2.64062 46.875 2.64062H41.5781V14.3125H50.5781V15.7188H41.5781V28.2344H46.875C47.4688 28.2344 48.0312 28.1719 48.5625 28.0469C50.3438 27.5781 51.6406 26.1406 52.4531 23.7344L53.5312 20.5H54.8906L54.7031 29.5H31.2656V28.2344H35.0156V2.64062H31.2656V1.375H54.7031L54.8906 10.375ZM94.1719 1.375V2.64062H90.4219V28.2344H92.9062C93.5625 28.2969 93.9844 28.7188 94.1719 29.5H80.3438V28.2344H84.0938V5.96875L74.0156 29.9688H73.1719L63.1875 10.5625V28.2344H65.6719C66.3281 28.2969 66.75 28.7188 66.9375 29.5H57.4688V28.2344H61.2188V2.64062H57.4688V1.375H65.8594L75.7031 21.5312L84.0938 1.375H94.1719ZM111.375 0.90625C114.906 0.90625 117.984 1.85938 120.609 3.76562C124.266 6.45312 126.094 10.375 126.094 15.5312C126.094 17.4688 125.766 19.2969 125.109 21.0156C123.766 24.5156 121.328 27.0469 117.797 28.6094C118.047 28.9219 118.297 29.2031 118.547 29.4531C120.547 31.6719 122.312 32.7812 123.844 32.7812C124.031 32.7812 124.234 32.7656 124.453 32.7344C125.516 32.6406 126.75 31.8906 128.156 30.4844L129.281 31.1406C127.688 34.9844 125.562 36.9375 122.906 37C121.219 36.9688 119.562 36.0938 117.938 34.375C117.375 33.75 116.234 32.1719 114.516 29.6406C113.516 29.8594 112.422 29.9688 111.234 29.9688C107.578 29.9688 104.391 28.9219 101.672 26.8281C98.1406 24.0781 96.375 20.25 96.375 15.3438C96.375 11.0625 97.8594 7.5625 100.828 4.84375C103.703 2.21875 107.219 0.90625 111.375 0.90625ZM110.578 23.5938C112.266 23.5938 114.141 24.6875 116.203 26.875C117.984 25.0938 118.875 21.2344 118.875 15.2969C118.875 12.2969 118.609 9.84375 118.078 7.9375C117.016 4.15625 114.734 2.26562 111.234 2.26562C110.016 2.26562 108.953 2.48437 108.047 2.92188C105.078 4.35937 103.594 8.5625 103.594 15.5312C103.594 20.9688 104.391 24.6406 105.984 26.5469C107.391 24.6094 108.922 23.625 110.578 23.5938ZM111.375 28.6094C112.219 28.6094 112.969 28.5156 113.625 28.3281C112.406 26.6719 111.234 25.8281 110.109 25.7969C109.078 25.8281 108.047 26.3906 107.016 27.4844C108.078 28.2031 109.531 28.5781 111.375 28.6094Z" fill="#1F1F1F"/>
</svg>
