<svg width="48" height="49" viewBox="0 0 48 49" fill="none" xmlns="http://www.w3.org/2000/svg">
<path fill-rule="evenodd" clip-rule="evenodd" d="M30.0013 39.2901C28.4047 40.6548 26.3322 41.4789 24.0669 41.4789C19.0199 41.4789 14.9293 37.3883 14.9293 32.3414C14.9293 27.2944 19.0199 23.2038 24.0669 23.2038C29.1139 23.2038 33.2044 27.2944 33.2044 32.3414C33.2044 34.2916 32.5937 36.099 31.5529 37.5828L34.4083 40.3721L34.522 40.2549C34.8391 39.9274 35.3692 39.9196 35.6967 40.2367L40.7151 45.107C41.0426 45.424 41.0503 45.9516 40.7307 46.2816L38.9192 48.1475C38.6022 48.475 38.0746 48.4828 37.7446 48.1658L32.7289 43.2955C32.3988 42.9784 32.391 42.4483 32.7106 42.1209L32.8029 42.0258L30.0013 39.2901ZM24.0669 25.3349C20.1972 25.3349 17.0603 28.4717 17.0603 32.3414C17.0603 36.2111 20.1972 39.3478 24.0669 39.3478C27.9365 39.3478 31.0734 36.2111 31.0734 32.3414C31.0734 28.4717 27.9365 25.3349 24.0669 25.3349ZM11.0237 20.9889C8.1167 20.9889 5.74709 18.6166 5.74709 15.7095C5.74709 12.8025 8.1167 10.4302 11.0237 10.4302C13.9335 10.4302 16.3031 12.8025 16.3031 15.7095C16.3031 18.6166 13.9335 20.9889 11.0237 20.9889ZM37.3213 20.9889C34.4143 20.9889 32.0447 18.6166 32.0447 15.7095C32.0447 12.8025 34.4143 10.4302 37.3213 10.4302C40.2311 10.4302 42.6007 12.8025 42.6007 15.7095C42.6007 18.6166 40.2311 20.9889 37.3213 20.9889ZM13.412 31.2863H1.20219C1.05915 31.2863 0.923268 31.2238 0.830131 31.1153C0.736993 31.0068 0.695915 30.8629 0.717582 30.7216C1.52797 25.7584 5.83356 21.9693 11.0237 21.9693C12.0022 21.9693 12.9492 22.1039 13.8472 22.3555C13.0937 23.6214 12.566 25.0374 12.3199 26.548C12.3191 26.5526 12.3185 26.5572 12.3177 26.5619C12.2265 27.1551 12.3989 27.7585 12.7897 28.214C13.0876 28.5612 13.4896 28.796 13.9297 28.888C13.6695 29.6522 13.4933 30.4553 13.412 31.2863ZM14.5858 27.3631C14.5013 27.3631 14.423 27.363 14.3509 27.363C14.2085 27.363 14.073 27.3008 13.9802 27.1926C13.8874 27.0844 13.8465 26.9412 13.8682 26.8003C14.6768 21.8369 18.9824 18.0477 24.1725 18.0477C29.3654 18.0477 33.6712 21.8371 34.479 26.8003C34.5006 26.9416 34.4594 27.0853 34.3663 27.1938C34.2732 27.3022 34.1374 27.3647 33.9943 27.3647H33.5488C31.7572 23.958 28.1836 21.6352 24.0669 21.6352C19.9508 21.6352 16.3777 23.9573 14.5858 27.3631ZM34.2153 28.9215C34.7331 28.8656 35.2138 28.6149 35.5565 28.2156C35.9477 27.7599 36.1204 27.1562 36.0294 26.5626C36.0288 26.5578 36.028 26.553 36.0272 26.5482C35.7813 25.0374 35.2538 23.6212 34.5001 22.3552C35.3975 22.1038 36.3437 21.9693 37.3213 21.9693C42.5142 21.9693 46.82 25.7586 47.626 30.7221C47.6476 30.8629 47.6066 31.0062 47.5139 31.1143C47.421 31.2223 47.2856 31.2846 47.1432 31.2846C45.3588 31.2855 39.6264 31.2859 34.7217 31.2861C34.6416 30.4673 34.4693 29.6756 34.2153 28.9215ZM24.1725 17.0673C21.2655 17.0673 18.8959 14.695 18.8959 11.7879C18.8959 8.88097 21.2655 6.50862 24.1725 6.50862C27.0823 6.50862 29.4519 8.88097 29.4519 11.7879C29.4519 14.695 27.0823 17.0673 24.1725 17.0673ZM21.1338 12.49L22.5835 13.9398C22.8793 14.2356 23.3552 14.2471 23.665 13.9661L27.1864 10.7717C27.5071 10.4808 27.5312 9.9844 27.2403 9.66382C26.9495 9.34313 26.4531 9.31901 26.1325 9.6099L23.1644 12.3023L22.243 11.3809C21.9368 11.0748 21.4398 11.0748 21.1338 11.3809C20.8277 11.687 20.8277 12.1839 21.1338 12.49ZM23.3895 1.38588C23.3895 0.952935 23.741 0.601562 24.1739 0.601562C24.6068 0.601562 24.9582 0.952935 24.9582 1.38588V4.28392C24.9582 4.71676 24.6068 5.06823 24.1739 5.06823C23.741 5.06823 23.3895 4.71676 23.3895 4.28392V1.38588ZM15.5706 5.27431C15.2645 4.96823 15.2645 4.47117 15.5706 4.16509C15.8767 3.85901 16.3738 3.85901 16.6798 4.16509L18.729 6.21431C19.0351 6.52048 19.0351 7.01744 18.729 7.32352C18.423 7.6296 17.926 7.6296 17.6198 7.32352L15.5706 5.27431ZM31.668 4.16509C31.974 3.85901 32.4711 3.85901 32.7772 4.16509C33.0833 4.47117 33.0833 4.96823 32.7772 5.27431L30.728 7.32352C30.4218 7.6296 29.9248 7.6296 29.6188 7.32352C29.3127 7.01744 29.3127 6.52048 29.6188 6.21431L31.668 4.16509Z" fill="#0B8468"/>
</svg>
