<svg width="80" height="81" viewBox="0 0 80 81" fill="none" xmlns="http://www.w3.org/2000/svg">
<path d="M34.7997 48.166L36.9664 50.3327C37.5997 50.966 38.6331 50.966 39.2664 50.366L45.1998 44.8993M26.6664 20.4993V17.8327C26.6664 11.9327 26.6664 7.16602 37.3331 7.16602H42.6664C53.3331 7.16602 53.3331 11.9327 53.3331 17.8327V20.4993M72.1664 37.166C66.3997 41.366 59.9998 44.2994 53.3664 45.966M8.73308 38.066C14.2997 41.866 20.3664 44.566 26.6664 46.0994M53.3331 47.8327C53.3331 55.1965 47.3635 61.166 39.9997 61.166C32.636 61.166 26.6664 55.1965 26.6664 47.8327C26.6664 40.4689 32.636 34.4993 39.9997 34.4993C47.3635 34.4993 53.3331 40.4689 53.3331 47.8327ZM26.6664 73.8327H53.3331C66.7331 73.8327 69.1331 68.466 69.8331 61.9327L72.3331 35.266C73.2331 27.1327 70.8997 20.4993 56.6664 20.4993H23.3331C9.09975 20.4993 6.76641 27.1327 7.66641 35.266L10.1664 61.9327C10.8664 68.466 13.2664 73.8327 26.6664 73.8327Z" stroke="#0B8468" stroke-width="2" stroke-miterlimit="10" stroke-linecap="round" stroke-linejoin="round"/>
</svg>
