<svg width="80" height="81" viewBox="0 0 80 81" fill="none" xmlns="http://www.w3.org/2000/svg">
<path d="M30.0003 73.8327H50.0003C66.667 73.8327 73.3337 67.166 73.3337 50.4994V30.4994C73.3337 13.8327 66.667 7.16602 50.0003 7.16602H30.0003C13.3337 7.16602 6.66699 13.8327 6.66699 30.4994V50.4994C6.66699 67.166 13.3337 73.8327 30.0003 73.8327Z" stroke="#0B8468" stroke-width="2" stroke-linecap="round" stroke-linejoin="round"/>
<path d="M51.667 62.166C55.3337 62.166 58.3337 59.166 58.3337 55.4994V25.4993C58.3337 21.8327 55.3337 18.8327 51.667 18.8327C48.0003 18.8327 45.0003 21.8327 45.0003 25.4993V55.4994C45.0003 59.166 47.967 62.166 51.667 62.166Z" stroke="#0B8468" stroke-width="2" stroke-linecap="round" stroke-linejoin="round"/>
<path d="M28.3337 62.166C32.0003 62.166 35.0003 59.166 35.0003 55.4994V43.8327C35.0003 40.166 32.0003 37.166 28.3337 37.166C24.667 37.166 21.667 40.166 21.667 43.8327V55.4994C21.667 59.166 24.6337 62.166 28.3337 62.166Z" stroke="#0B8468" stroke-width="2" stroke-linecap="round" stroke-linejoin="round"/>
</svg>
