<svg width="163" height="30" viewBox="0 0 163 30" fill="none" xmlns="http://www.w3.org/2000/svg">
<path d="M24.5469 27.6719C21.5781 29.2031 18.4844 29.9688 15.2656 29.9688C10.7344 29.9688 7.07812 28.5156 4.29688 25.6094C1.70312 22.8594 0.40625 19.4688 0.40625 15.4375C0.40625 12.0312 1.39062 9.01562 3.35938 6.39062C6.14062 2.73438 10.1562 0.90625 15.4062 0.90625C18.6875 0.90625 21.6875 1.64062 24.4062 3.10938C24.375 2.60938 24.3906 2.20312 24.4531 1.89062C24.6094 1.39063 25.0938 1.14062 25.9062 1.14062L26.0469 10.375H24.4062C23.9062 8.5625 23.3281 7.07812 22.6719 5.92188C21.2656 3.51562 19.0938 2.3125 16.1562 2.3125C10.5938 2.34375 7.79688 6.64062 7.76562 15.2031C7.76562 17.8281 7.95312 20.0312 8.32812 21.8125C9.32812 26.3125 11.8125 28.5625 15.7812 28.5625C16.7812 28.5625 17.6875 28.4531 18.5 28.2344C21.4375 27.4219 23.4844 24.8438 24.6406 20.5H26.1875V29.7344C25.8438 29.7344 25.5625 29.7031 25.3438 29.6406C24.7812 29.5156 24.5156 28.8594 24.5469 27.6719ZM48.5469 2.64062V1.375H58.0156V2.64062H54.2656V29.2656L51.5938 29.7344L33.5469 8.6875V28.2344H36.2656C36.9219 28.2969 37.3438 28.7188 37.5312 29.5H27.8281V28.2344H31.5781V2.64062H27.8281V1.375H35.75L52.2969 20.7812V2.64062H48.5469ZM82.8125 10.375H81.4531L80.4219 7.14062C80.3281 6.85938 80.2188 6.57812 80.0938 6.29688C79.125 3.85938 77.3594 2.64062 74.7969 2.64062H69.5V14.3125H78.5V15.7188H69.5V28.2344H74.7969C75.3906 28.2344 75.9531 28.1719 76.4844 28.0469C78.2656 27.5781 79.5625 26.1406 80.375 23.7344L81.4531 20.5H82.8125L82.625 29.5H59.1875V28.2344H62.9375V2.64062H59.1875V1.375H82.625L82.8125 10.375ZM109.156 21.6719C109.156 23.7344 108.422 25.4844 106.953 26.9219C104.828 28.9531 101.781 29.9688 97.8125 29.9688C94.4062 29.9688 91.5 29.1719 89.0938 27.5781C89.0938 28.1094 89.0625 28.5312 89 28.8438C88.8438 29.3438 88.3438 29.5938 87.5 29.5938V19.6562H89.3281C89.4531 21.3125 89.7969 22.7812 90.3594 24.0625C91.7031 27.0938 94.0312 28.6094 97.3438 28.6094C98.2188 28.6094 99.0156 28.4844 99.7344 28.2344C101.734 27.4844 102.734 25.9844 102.734 23.7344C102.734 23.0781 102.594 22.4375 102.312 21.8125C101.656 20.5 99.9844 19.1406 97.2969 17.7344C94.2969 16.2031 92.6094 15.3125 92.2344 15.0625C89.2656 13.2188 87.7812 11 87.7812 8.40625C87.7812 6.65625 88.3906 5.14062 89.6094 3.85938C91.5156 1.89062 94.3594 0.90625 98.1406 0.90625C101.016 0.90625 103.75 1.51562 106.344 2.73438C106.344 2.45312 106.359 2.20312 106.391 1.98438C106.547 1.39063 107.062 1.09375 107.938 1.09375V9.57812H106.109C106.078 7.89062 105.672 6.4375 104.891 5.21875C103.609 3.28125 101.688 2.3125 99.125 2.3125C98.4688 2.3125 97.8438 2.40625 97.25 2.59375C95.4688 3.1875 94.5781 4.40625 94.5781 6.25C94.5781 6.96875 94.7344 7.65625 95.0469 8.3125C95.7031 9.65625 97.3438 11.0156 99.9688 12.3906C102.844 13.9219 104.484 14.7969 104.891 15.0156C107.734 16.8594 109.156 19.0781 109.156 21.6719ZM135.312 21.6719C135.312 23.7344 134.578 25.4844 133.109 26.9219C130.984 28.9531 127.938 29.9688 123.969 29.9688C120.562 29.9688 117.656 29.1719 115.25 27.5781C115.25 28.1094 115.219 28.5312 115.156 28.8438C115 29.3438 114.5 29.5938 113.656 29.5938V19.6562H115.484C115.609 21.3125 115.953 22.7812 116.516 24.0625C117.859 27.0938 120.188 28.6094 123.5 28.6094C124.375 28.6094 125.172 28.4844 125.891 28.2344C127.891 27.4844 128.891 25.9844 128.891 23.7344C128.891 23.0781 128.75 22.4375 128.469 21.8125C127.812 20.5 126.141 19.1406 123.453 17.7344C120.453 16.2031 118.766 15.3125 118.391 15.0625C115.422 13.2188 113.938 11 113.938 8.40625C113.938 6.65625 114.547 5.14062 115.766 3.85938C117.672 1.89062 120.516 0.90625 124.297 0.90625C127.172 0.90625 129.906 1.51562 132.5 2.73438C132.5 2.45312 132.516 2.20312 132.547 1.98438C132.703 1.39063 133.219 1.09375 134.094 1.09375V9.57812H132.266C132.234 7.89062 131.828 6.4375 131.047 5.21875C129.766 3.28125 127.844 2.3125 125.281 2.3125C124.625 2.3125 124 2.40625 123.406 2.59375C121.625 3.1875 120.734 4.40625 120.734 6.25C120.734 6.96875 120.891 7.65625 121.203 8.3125C121.859 9.65625 123.5 11.0156 126.125 12.3906C129 13.9219 130.641 14.7969 131.047 15.0156C133.891 16.8594 135.312 19.0781 135.312 21.6719ZM158 29.5H142.531V28.2344H146.984V2.64062H146.188C145.125 2.64062 144.219 2.84375 143.469 3.25C142.375 3.875 141.484 5.1875 140.797 7.1875L139.344 11.4062H137.938L138.125 1.375H162.406L162.594 11.4062H161.188L159.734 7.1875C159.516 6.59375 159.312 6.07812 159.125 5.64062C158.188 3.64063 156.594 2.64062 154.344 2.64062H153.547V28.2344H156.734C157.391 28.2969 157.812 28.7188 158 29.5Z" fill="#1F1F1F"/>
</svg>
