<svg width="51" height="51" viewBox="0 0 51 51" fill="none" xmlns="http://www.w3.org/2000/svg">
<path d="M11.8635 36.56C11.6362 36.56 11.4089 36.4085 11.2574 36.257L7.09073 30.0448C6.86346 29.7418 6.93922 29.2873 7.318 29.06C7.69679 28.8327 8.15134 28.9085 8.37861 29.2873L12.0907 34.8176L16.7877 31.7873L12.1665 28.1509C11.8635 27.9236 11.7877 27.3933 12.015 27.0903C12.2422 26.7873 12.7726 26.7115 13.0756 26.9388L18.5301 31.257C18.7574 31.4085 18.8332 31.6358 18.8332 31.863C18.8332 32.0903 18.6816 32.3176 18.4544 32.4691L12.2422 36.4842C12.1665 36.56 12.015 36.56 11.8635 36.56Z" fill="#0B8468"/>
<path d="M24.5901 36.56C24.4386 36.56 24.2871 36.56 24.2113 36.4842L17.6962 32.4691C17.4689 32.3176 17.3174 32.0903 17.3174 31.863C17.3174 31.6358 17.3931 31.4085 17.6204 31.257L23.378 26.9388C23.681 26.7115 24.2113 26.7873 24.4386 27.0903C24.6659 27.3933 24.5901 27.9236 24.2871 28.1509L19.4386 31.7873L24.3628 34.8176L28.075 29.2873C28.3022 28.9085 28.7568 28.8327 29.1356 29.06C29.5144 29.2873 29.5901 29.7418 29.3628 30.1206L25.1962 36.257C25.1204 36.4842 24.8931 36.56 24.5901 36.56Z" fill="#0B8468"/>
<path d="M17.9997 25.2731C12.6967 25.2731 8.30273 20.955 8.30273 15.5762V14.364C8.30273 13.9095 8.60576 13.6065 9.06031 13.6065C9.51486 13.6065 9.81789 13.9095 9.81789 14.364V15.6519C9.81789 20.1216 13.4542 23.8337 17.9997 23.8337C22.5452 23.8337 26.1815 20.1216 26.1815 15.6519V13.8337C26.1815 13.3792 26.4846 13.0762 26.9391 13.0762C27.3936 13.0762 27.6967 13.3792 27.6967 13.8337V15.6519C27.6967 20.955 23.3785 25.2731 17.9997 25.2731Z" fill="#0B8468"/>
<path d="M9.13584 15.121C8.68129 15.121 8.37826 14.818 8.37826 14.3635V10.7271C8.37826 9.81802 8.45402 8.90893 8.68129 7.99984C8.83281 7.39378 8.98432 6.86347 9.2116 6.40893C8.52978 5.57559 7.16614 3.6059 7.39341 2.01499C7.39341 1.78772 7.54493 1.56044 7.7722 1.40893C7.99947 1.25741 8.22675 1.25741 8.45402 1.40893C8.45402 1.40893 10.1207 2.1665 14.5146 1.33317C14.8934 1.40893 21.7874 0.348321 25.4995 3.6059C26.1055 4.1362 27.6964 5.49984 27.6964 9.1362V13.8332C27.6964 14.212 27.4692 14.515 27.0904 14.5907C26.7116 14.6665 26.4086 14.515 26.257 14.212C25.4237 12.4695 24.0601 10.6514 23.2267 10.3483C22.6964 10.9544 23.0752 11.9392 23.0752 11.9392C23.151 12.2423 23.0752 12.5453 22.848 12.7726C22.6207 12.9998 22.3177 12.9998 22.0146 12.8483C20.954 12.318 20.1964 11.712 19.6661 11.0301C19.5904 11.4847 19.7419 11.9392 19.7419 11.9392C19.8177 12.2423 19.7419 12.5453 19.5146 12.7726C19.2874 12.9998 18.9843 12.9998 18.6813 12.8483C17.6207 12.318 16.8631 11.712 16.3328 11.0301C16.257 11.4847 16.4086 11.9392 16.4086 11.9392C16.4843 12.2423 16.4086 12.5453 16.1813 12.7726C15.954 12.9998 15.651 12.9998 15.348 12.8483C13.9843 12.1665 13.0752 11.3332 12.5449 10.3483C9.96917 10.9544 9.81766 14.212 9.81766 14.3635C9.81766 14.818 9.51463 15.121 9.13584 15.121ZM22.9995 8.75741C24.1358 8.75741 25.2722 9.89378 26.1813 11.1059V9.21196C26.1813 6.25741 25.0449 5.27256 24.5146 4.81802C21.3328 1.93923 14.8934 2.92408 14.8177 2.92408C11.9389 3.45438 10.1207 3.37862 8.98432 3.22711C9.28735 4.1362 10.0449 5.27256 10.651 5.87862C10.8783 6.1059 10.8783 6.56044 10.7267 6.78772C10.651 6.93923 10.4237 7.31802 10.1964 8.37862C10.0449 8.98468 9.96917 9.59074 9.96917 10.2726C10.651 9.51499 11.6358 8.90893 13.0752 8.75741C13.454 8.75741 13.7571 8.90893 13.8328 9.28772C14.0601 9.81802 14.3631 10.3483 14.8934 10.7271C14.9692 10.0453 15.2722 9.36347 16.0298 8.90893C16.257 8.75741 16.4843 8.75741 16.7116 8.83317C16.9389 8.90893 17.0904 9.06044 17.1661 9.28772C17.3934 9.81802 17.6964 10.3483 18.2267 10.7271C18.3025 10.0453 18.6055 9.36347 19.3631 8.90893C19.5904 8.75741 19.8177 8.75741 20.0449 8.83317C20.2722 8.90893 20.4237 9.06044 20.4995 9.28772C20.7267 9.81802 21.0298 10.3483 21.5601 10.7271C21.6358 10.0453 21.9389 9.36347 22.6964 8.90893C22.6964 8.83317 22.848 8.75741 22.9995 8.75741Z" fill="#0B8468"/>
<path d="M30.5753 49.7429H5.87831C3.45407 49.7429 1.48438 47.7732 1.48438 45.349V34.2884C1.48438 31.8641 2.99953 29.7429 5.34801 29.0611L11.9389 27.0156V22.7732C11.9389 22.3187 12.242 22.0156 12.6965 22.0156C13.151 22.0156 13.4541 22.3187 13.4541 22.7732V27.5459C13.4541 27.849 13.2268 28.152 12.9238 28.3035L5.80256 30.5762C4.13589 31.1065 2.99953 32.6217 2.99953 34.3641V45.4247C2.92377 46.9399 4.28741 48.2277 5.87831 48.2277H30.651C32.242 48.2277 33.5298 46.9399 33.5298 45.349V34.2884C33.5298 32.5459 32.3935 31.0308 30.7268 30.5005L23.6056 28.2277C23.3026 28.152 23.0753 27.849 23.0753 27.4702V22.7732C23.0753 22.3187 23.3783 22.0156 23.8329 22.0156C24.2874 22.0156 24.5904 22.3187 24.5904 22.7732V26.9399L31.1813 28.9853C33.4541 29.6671 35.045 31.7884 35.045 34.2126V45.2732C35.045 47.7732 33.0753 49.7429 30.5753 49.7429Z" fill="#0B8468"/>
<path d="M14.2871 49.7423C14.2113 49.7423 14.1356 49.7423 14.1356 49.7423C13.7568 49.6665 13.4538 49.212 13.6053 48.8332L15.9538 39.1362C16.1053 38.6059 16.0295 37.9999 15.7265 37.4696L13.7568 34.5908C13.5295 34.212 13.6053 33.7575 13.9841 33.5302C14.3629 33.3029 14.8174 33.3787 15.0447 33.7575L16.8629 36.6362C17.3932 37.4696 17.5447 38.5302 17.3174 39.4393L14.9689 49.1362C14.8932 49.515 14.5901 49.7423 14.2871 49.7423Z" fill="#0B8468"/>
<path d="M21.7117 49.743C21.3329 49.743 21.0299 49.5157 20.9541 49.137L18.6814 39.44C18.4541 38.5309 18.6056 37.4703 19.1359 36.637L21.1056 33.5309C21.3329 33.1521 21.7874 33.0763 22.1662 33.3036C22.545 33.5309 22.6208 33.9854 22.3935 34.3642L20.4238 37.3945C20.1208 37.8491 20.045 38.4551 20.1965 38.9854L22.4693 48.8339C22.545 49.2127 22.3177 49.6673 21.9389 49.743C21.8632 49.743 21.7874 49.743 21.7117 49.743Z" fill="#0B8468"/>
<path d="M42.9991 25.0447H31.1809C29.9688 25.0447 28.9082 24.0599 28.9082 22.772V5.49929C28.9082 4.28717 29.8931 3.22656 31.1809 3.22656H42.9991C44.2112 3.22656 45.2718 4.21141 45.2718 5.49929V22.772C45.2718 23.9841 44.287 25.0447 42.9991 25.0447ZM31.1809 4.74171C30.8021 4.74171 30.4234 5.04474 30.4234 5.49929V22.772C30.4234 23.1508 30.7264 23.5296 31.1809 23.5296H42.9991C43.3779 23.5296 43.7567 23.2266 43.7567 22.772V5.49929C43.7567 5.1205 43.4537 4.74171 42.9991 4.74171H31.1809Z" fill="#0B8468"/>
<path d="M44.9692 29.44C44.8934 29.44 44.7419 29.44 44.6661 29.44L32.9237 27.7733C31.7116 27.6218 30.8025 26.4854 30.954 25.1976L31.1055 24.137C31.1813 23.7582 31.5601 23.4551 31.9389 23.4551C32.3177 23.5309 32.6207 23.9097 32.6207 24.2885L32.4692 25.3491C32.3934 25.7279 32.6964 26.1067 33.0752 26.1824L44.7419 27.7733C44.9692 27.7733 45.1207 27.7733 45.2722 27.6218C45.4237 27.4703 45.4995 27.3188 45.5752 27.0915L47.9237 9.97029C47.9995 9.5915 47.6964 9.21271 47.3177 9.13695L44.4389 8.90968C44.0601 8.83393 43.7571 8.45514 43.7571 8.07635C43.8328 7.69756 44.2116 7.39453 44.5904 7.39453L47.6207 7.77332C48.8328 7.92483 49.7419 9.0612 49.5904 10.3491L47.2419 27.4703C47.1661 28.0763 46.8631 28.6067 46.3328 28.9854C45.954 29.2127 45.4237 29.44 44.9692 29.44Z" fill="#0B8468"/>
<path d="M35.575 21.6364H32.5447C32.0901 21.6364 31.7871 21.3334 31.7871 20.8788V17.697C31.7871 17.2425 32.0901 16.9395 32.5447 16.9395H35.575C36.0295 16.9395 36.3326 17.2425 36.3326 17.697V20.8788C36.3326 21.2576 36.0295 21.6364 35.575 21.6364ZM33.3023 20.1213H34.8174V18.4546H33.3023V20.1213Z" fill="#0B8468"/>
<path d="M38.6814 21.6374H35.6511C35.1966 21.6374 34.8936 21.3344 34.8936 20.8799V14.6677C34.8936 14.2132 35.1966 13.9102 35.6511 13.9102H38.6814C39.136 13.9102 39.439 14.2132 39.439 14.6677V20.8799C39.439 21.2586 39.0602 21.6374 38.6814 21.6374ZM36.3329 20.1223H37.8481V15.4253H36.3329V20.1223Z" fill="#0B8468"/>
<path d="M41.7117 21.6362H38.6814C38.2269 21.6362 37.9238 21.3332 37.9238 20.8787V10.8787C37.9238 10.4241 38.2269 10.1211 38.6814 10.1211H41.7117C42.1663 10.1211 42.4693 10.4241 42.4693 10.8787V20.8787C42.4693 21.2575 42.1663 21.6362 41.7117 21.6362ZM39.439 20.1211H40.9541V11.6362H39.439V20.1211Z" fill="#0B8468"/>
<path d="M39.439 8.15187H32.6209C32.1663 8.15187 31.8633 7.84884 31.8633 7.39429C31.8633 6.93975 32.1663 6.63672 32.6209 6.63672H39.439C39.8936 6.63672 40.1966 6.93975 40.1966 7.39429C40.1966 7.84884 39.8178 8.15187 39.439 8.15187Z" fill="#0B8468"/>
<path d="M35.5754 10.8784H32.6209C32.1663 10.8784 31.8633 10.5754 31.8633 10.1209C31.8633 9.66631 32.1663 9.36328 32.6209 9.36328H35.5754C36.0299 9.36328 36.333 9.66631 36.333 10.1209C36.333 10.5754 36.0299 10.8784 35.5754 10.8784Z" fill="#0B8468"/>
<path d="M30.878 45.6506H24.5144C24.0599 45.6506 23.7568 45.3476 23.7568 44.893V39.0597C23.7568 38.8324 23.9084 38.6052 24.0599 38.4536C24.2871 38.3021 24.5144 38.3021 24.7417 38.3779C26.7114 39.0597 28.6811 39.0597 30.6508 38.3779C30.878 38.3021 31.1053 38.3021 31.3326 38.4536C31.5599 38.6052 31.6356 38.8324 31.6356 39.0597V44.893C31.6356 45.3476 31.3326 45.6506 30.878 45.6506ZM25.272 44.1355H30.1205V40.0446C28.5296 40.4233 26.8629 40.4233 25.272 40.0446V44.1355Z" fill="#0B8468"/>
</svg>
