<svg width="106" height="107" viewBox="0 0 106 107" fill="none" xmlns="http://www.w3.org/2000/svg">
<rect x="1.26172" y="1.35547" width="103.654" height="103.66" rx="51.827" fill="#FBFBFB"/>
<rect x="1.26172" y="1.35547" width="103.654" height="103.66" rx="51.827" stroke="#B3D9D0" stroke-width="2"/>
<path d="M33.4805 51.0067C33.4805 42.8364 33.4805 38.7512 35.5611 35.8874C36.2331 34.9625 37.0465 34.1491 37.9714 33.4772C40.8352 31.3965 44.9204 31.3965 53.0907 31.3965C61.261 31.3965 65.3463 31.3965 68.21 33.4772C69.135 34.1491 69.9483 34.9625 70.6203 35.8874C72.701 38.7512 72.701 42.8364 72.701 51.0067V55.3646C72.701 63.5349 72.701 67.6201 70.6203 70.4839C69.9483 71.4088 69.135 72.2222 68.21 72.8942C65.3463 74.9748 61.261 74.9748 53.0907 74.9748C44.9204 74.9748 40.8352 74.9748 37.9714 72.8942C37.0465 72.2222 36.2331 71.4088 35.5611 70.4839C33.4805 67.6201 33.4805 63.5349 33.4805 55.3646V51.0067Z" stroke="#0B8468" stroke-width="3.3" stroke-linecap="round" stroke-linejoin="round"/>
<path d="M59.6266 47.7383H42.1953M48.7321 58.6329H42.1953" stroke="#0B8468" stroke-width="3.3" stroke-linecap="round" stroke-linejoin="round"/>
</svg>
