<svg width="51" height="51" viewBox="0 0 51 51" fill="none" xmlns="http://www.w3.org/2000/svg">
<path d="M23.9375 17.6875H22.375V19.25H23.9375V17.6875Z" fill="#0B8468"/>
<path d="M28.625 17.6875H27.0625V19.25H28.625V17.6875Z" fill="#0B8468"/>
<path d="M26.2815 22.376V20.8135C26.2268 20.8135 26.1729 20.8005 26.1243 20.7756C26.0756 20.7507 26.0336 20.7146 26.0016 20.6702C25.9697 20.6259 25.9487 20.5746 25.9404 20.5206C25.9322 20.4665 25.9369 20.4113 25.9542 20.3595L26.2414 19.498L24.7591 19.0039L24.4719 19.8654C24.3763 20.1521 24.3503 20.4574 24.3958 20.7562C24.4414 21.055 24.5573 21.3387 24.7341 21.5838C24.9108 21.829 25.1432 22.0287 25.4123 22.1664C25.6813 22.3041 25.9792 22.376 26.2815 22.376Z" fill="#0B8468"/>
<path d="M27.0625 23.1562H23.9375V24.7188H27.0625V23.1562Z" fill="#0B8468"/>
<path d="M45.0315 33.3125V32.672L40.4214 31.75H36.8855L30.969 29.6369V25.5381C32.0599 24.3803 32.8087 22.9429 33.1325 21.3855L34.9382 20.4826C35.4848 20.2093 35.9231 19.7595 36.1821 19.206C36.4411 18.6525 36.5056 18.0278 36.3652 17.4331C36.2248 16.8384 35.8877 16.3085 35.4086 15.9293C34.9294 15.5501 34.3362 15.3437 33.7252 15.3437H33.31C33.7959 14.9804 34.1903 14.5087 34.462 13.9662C34.7337 13.4238 34.8752 12.8254 34.8753 12.2187V11.4375C34.8731 9.69286 34.2232 8.01119 33.0517 6.71844C31.8801 5.42568 30.2703 4.61393 28.5344 4.44051C28.3674 3.76194 27.9778 3.15892 27.4277 2.72784C26.8777 2.29676 26.1991 2.0625 25.5003 2.0625C24.8014 2.0625 24.1228 2.29676 23.5728 2.72784C23.0228 3.15892 22.6331 3.76194 22.4662 4.44051C20.7302 4.61393 19.1204 5.42568 17.9489 6.71844C16.7773 8.01119 16.1275 9.69286 16.1253 11.4375V12.2187C16.1253 12.8254 16.2668 13.4238 16.5385 13.9662C16.8102 14.5087 17.2046 14.9804 17.6905 15.3437H17.2753C16.6643 15.3437 16.0711 15.5501 15.592 15.9293C15.1128 16.3085 14.7757 16.8384 14.6353 17.4331C14.4949 18.0278 14.5595 18.6525 14.8184 19.206C15.0774 19.7595 15.5157 20.2093 16.0623 20.4826L17.868 21.3855C18.1918 22.9429 18.9406 24.3803 20.0315 25.5381V29.6369L13.9363 31.8138C12.4948 32.3292 11.217 33.2202 10.235 34.3945C9.25291 35.5689 8.60213 36.9841 8.34986 38.4941L7.06412 46.2084C7.00816 46.5442 7.026 46.8881 7.11641 47.2162C7.20682 47.5444 7.36763 47.8489 7.58764 48.1087C7.80766 48.3684 8.08161 48.5771 8.39044 48.7202C8.69927 48.8633 9.03557 48.9375 9.37596 48.9375H41.6246C41.9649 48.9375 42.3012 48.8633 42.6101 48.7202C42.9189 48.5771 43.1929 48.3684 43.4129 48.1087C43.6329 47.8489 43.7937 47.5444 43.8841 47.2162C43.9745 46.8881 43.9924 46.5442 43.9364 46.2084L42.6507 38.4941C42.6022 38.2065 42.5392 37.9216 42.4619 37.6404L45.0315 36.0986V34.875H48.9378V33.3125H45.0315ZM33.3128 16.9062H33.7252C33.9843 16.9062 34.2357 16.9937 34.4389 17.1545C34.6421 17.3153 34.785 17.54 34.8445 17.7921C34.904 18.0443 34.8767 18.3091 34.7668 18.5438C34.657 18.7785 34.4712 18.9692 34.2395 19.085L33.3128 19.5484V16.9062ZM17.6878 19.5484L16.761 19.085C16.5293 18.9692 16.3435 18.7785 16.2337 18.5438C16.1239 18.3091 16.0965 18.0443 16.156 17.7921C16.2155 17.54 16.3585 17.3153 16.5616 17.1545C16.7648 16.9937 17.0163 16.9062 17.2753 16.9062H17.6878V19.5484ZM35.3455 33.3125H39.5628V37.5828L37.764 38.7812H34.4176L33.9126 38.2762C33.7415 38.1044 33.6126 37.8952 33.5359 37.6652C33.4593 37.4352 33.4369 37.1905 33.4706 36.9504L33.7987 34.654C33.8534 34.2823 34.0395 33.9426 34.3233 33.6965C34.6071 33.4503 34.9698 33.3141 35.3455 33.3125ZM37.078 40.3437L36.5572 43.4687H34.8753V40.3437H37.078ZM17.6878 11.4375C17.6895 10.123 18.164 8.85298 19.0246 7.85936C19.8852 6.86575 21.0745 6.21482 22.3753 6.02543V9.87499H23.9378V5.18749C23.9378 4.77309 24.1024 4.37566 24.3954 4.08263C24.6884 3.78961 25.0859 3.62499 25.5003 3.62499C25.9147 3.62499 26.3121 3.78961 26.6051 4.08263C26.8981 4.37566 27.0628 4.77309 27.0628 5.18749V9.87499H28.6253V6.02543C29.926 6.21482 31.1153 6.86575 31.9759 7.85936C32.8365 8.85298 33.311 10.123 33.3128 11.4375H17.6878ZM17.8222 13H33.1784C33.0164 13.4566 32.717 13.8519 32.3215 14.1316C31.9259 14.4114 31.4535 14.5619 30.969 14.5625H20.0315C19.547 14.5619 19.0746 14.4114 18.679 14.1316C18.2835 13.8519 17.9842 13.4566 17.8222 13ZM19.2503 19.6416V16.0464C19.5074 16.0987 19.7691 16.1251 20.0315 16.125H30.969C31.2314 16.1251 31.4931 16.0987 31.7503 16.0464V19.6416C31.7495 21.0015 31.3547 22.3321 30.6137 23.4724C29.8726 24.6127 28.8171 25.5138 27.5747 26.0669L26.4521 26.5657C26.1524 26.6987 25.8281 26.7674 25.5002 26.7674C25.1723 26.7674 24.8481 26.6987 24.5483 26.5657L23.4258 26.0669C22.1834 25.5138 21.1279 24.6127 20.3868 23.4724C19.6458 22.3321 19.251 21.0015 19.2503 19.6416ZM22.7827 31.6676C24.5473 32.2518 26.4532 32.2518 28.2178 31.6676L30.0923 31.0428C29.897 31.908 29.4135 32.6812 28.7211 33.2355C28.0287 33.7899 27.1685 34.0925 26.2815 34.0937H24.719C23.832 34.0925 22.9718 33.7899 22.2794 33.2355C21.587 32.6812 21.1035 31.908 20.9082 31.0428L22.7827 31.6676ZM21.594 29.6244V26.8429C21.9752 27.0916 22.3755 27.3095 22.7912 27.4947L23.9138 27.9936C24.4133 28.2152 24.9538 28.3296 25.5003 28.3296C26.0468 28.3296 26.5872 28.2152 27.0867 27.9936L28.2093 27.4947C28.625 27.3095 29.0254 27.0916 29.4065 26.8429V29.6244L27.7237 30.1853C26.2799 30.6632 24.7206 30.6632 23.2768 30.1853L21.594 29.6244ZM19.4144 31.5165C19.7121 32.6983 20.3954 33.747 21.3562 34.4968C22.3169 35.2466 23.5003 35.6546 24.719 35.6562H26.2815C27.5002 35.6546 28.6836 35.2466 29.6444 34.4968C30.6051 33.747 31.2884 32.6983 31.5861 31.5165L33.6522 32.2543C33.2769 32.4966 32.9577 32.8163 32.7162 33.1921C32.4747 33.5679 32.3164 33.991 32.2519 34.4331L31.9239 36.7294C31.8444 37.2954 31.9213 37.8723 32.1462 38.3976C32.0775 38.5148 31.9792 38.6119 31.8611 38.6792C31.7431 38.7465 31.6095 38.7817 31.4736 38.7812H19.5269C19.3706 38.7817 19.2178 38.7351 19.0884 38.6476C18.9591 38.56 18.8591 38.4354 18.8015 38.2901L16.5073 32.5547L19.4144 31.5165ZM13.7815 47.375H9.37596C9.2625 47.375 9.15041 47.3503 9.04747 47.3026C8.94453 47.2548 8.85321 47.1853 8.77987 47.0987C8.70654 47.0121 8.65293 46.9106 8.62279 46.8013C8.59265 46.6919 8.5867 46.5772 8.60534 46.4653L9.89109 38.751C10.1372 37.2767 10.8466 35.9192 11.9165 34.8754L13.7414 40.3502C13.768 40.4299 13.7815 40.5133 13.7815 40.5973V47.375ZM31.8847 47.375H15.344V40.5973C15.3441 40.3454 15.3034 40.0951 15.2237 39.8561L13.2275 33.8675C13.6191 33.6338 14.0324 33.4388 14.4618 33.2853L15.0348 33.0806L17.3508 38.8705C17.5235 39.3062 17.8234 39.6799 18.2116 39.9427C18.5998 40.2055 19.0581 40.3453 19.5269 40.3437H31.4736C32.084 40.3451 32.6706 40.1071 33.1076 39.6809L33.3128 39.8861V43.4687H17.6878V45.0312H32.2362C31.92 45.4401 31.749 45.9428 31.7503 46.4597V46.5937C31.7501 46.8599 31.7956 47.1241 31.8847 47.375ZM38.0003 46.5937C38 46.8009 37.9176 46.9994 37.7712 47.1459C37.6247 47.2924 37.4261 47.3747 37.219 47.375H34.094C33.8869 47.3747 33.6883 47.2924 33.5418 47.1459C33.3954 46.9994 33.313 46.8009 33.3128 46.5937V46.4597C33.3125 46.3571 33.3326 46.2554 33.3718 46.1605C33.4111 46.0657 33.4688 45.9796 33.5416 45.9072L34.4176 45.0312H36.8954L37.7714 45.9072C37.8442 45.9796 37.9019 46.0657 37.9412 46.1605C37.9805 46.2554 38.0005 46.3571 38.0003 46.4597V46.5937ZM42.2206 47.0987C42.1478 47.1859 42.0566 47.2559 41.9536 47.3036C41.8505 47.3514 41.7381 47.3758 41.6246 47.375H39.4284C39.5174 47.1241 39.5629 46.8599 39.5628 46.5937V46.4597C39.5636 46.1518 39.5033 45.8468 39.3855 45.5623C39.2677 45.2778 39.0946 45.0195 38.8763 44.8024L38.0557 43.9819L38.7152 40.0248L40.7619 38.6604L41.0582 38.4826C41.0767 38.5718 41.0945 38.6612 41.1094 38.751L42.3952 46.4653C42.4146 46.5772 42.4091 46.6921 42.3789 46.8016C42.3487 46.9111 42.2947 47.0126 42.2206 47.0987ZM43.469 35.2139L41.1253 36.6202V33.4842L43.469 33.953V35.2139Z" fill="#0B8468"/>
<path d="M36.4375 34.875H34.875V36.4375H36.4375V34.875Z" fill="#0B8468"/>
</svg>
