<svg width="32" height="33" viewBox="0 0 32 33" fill="none" xmlns="http://www.w3.org/2000/svg">
<g clip-path="url(#clip0_7001_14659)">
<g filter="url(#filter0_d_7001_14659)">
<mask id="path-1-inside-1_7001_14659" fill="white">
<path d="M25.2267 19.0685C25.0391 18.7719 24.7796 18.5275 24.4722 18.3582C24.1648 18.1888 23.8195 18.1 23.4685 18.1C23.1176 18.1 22.7723 18.1888 22.4649 18.3582C22.1575 18.5275 21.8979 18.7719 21.7104 19.0685L18.9568 23.4557C18.74 22.776 18.3906 22.1459 17.9289 21.602C17.4672 21.058 16.9022 20.611 16.2667 20.2867C16.2333 20.2658 16.1975 20.2492 16.16 20.2371C15.4461 19.8866 14.6619 19.703 13.8667 19.7H12.2667V18.6333C13.3669 18.1717 14.3298 17.4345 15.0624 16.4927C15.795 15.5509 16.2728 14.4363 16.4496 13.2563C17.0636 13.1534 17.6222 12.8387 18.0282 12.3667C18.4342 11.8948 18.662 11.2955 18.6719 10.673C18.6819 10.0505 18.4734 9.44423 18.0827 8.95954C17.692 8.47485 17.1437 8.1424 16.5333 8.02V6.36667C16.5315 4.81129 15.9128 3.32015 14.813 2.22033C13.7132 1.12052 12.222 0.501835 10.6667 0.5L8.53333 0.5C6.97796 0.501835 5.48681 1.12052 4.387 2.22033C3.28718 3.32015 2.6685 4.81129 2.66667 6.36667V8.0248C2.01378 8.15758 1.43402 8.52943 1.04107 9.06747C0.788528 9.41857 0.623768 9.82507 0.560578 10.2529C0.497388 10.6808 0.537606 11.1175 0.677867 11.5267C0.831814 11.977 1.10626 12.3766 1.47137 12.6819C1.83649 12.9872 2.2783 13.1866 2.7488 13.2584C2.93077 14.435 3.41083 15.5455 4.14328 16.4842C4.87574 17.4229 5.83622 18.1585 6.93333 18.6211V19.7H5.33333C4.52829 19.7007 3.73405 19.8854 3.0112 20.2397C2.99533 20.2463 2.97984 20.2538 2.9648 20.2621C2.07566 20.7028 1.32711 21.3829 0.803346 22.2258C0.279579 23.0687 0.00136718 24.041 0 25.0333L0 30.3667C0 30.9325 0.224761 31.4751 0.624839 31.8752C1.02492 32.2752 1.56754 32.5 2.13333 32.5H29.9269C30.2974 32.5029 30.6617 32.4052 30.9811 32.2174C31.3004 32.0295 31.5628 31.7586 31.7403 31.4333C31.9192 31.115 32.0084 30.7541 31.9982 30.3891C31.9881 30.0241 31.879 29.6687 31.6827 29.3608L25.2267 19.0685ZM18.1221 24.7832L16.5333 27.3139V21.7139C16.9972 22.0867 17.3781 22.5523 17.6517 23.0808C17.9253 23.6094 18.0855 24.1892 18.1221 24.7832ZM6.4 20.7667H6.98667C7.10907 21.3695 7.43612 21.9115 7.91239 22.3007C8.38867 22.69 8.98488 22.9027 9.6 22.9027C10.2151 22.9027 10.8113 22.69 11.2876 22.3007C11.7639 21.9115 12.0909 21.3695 12.2133 20.7667H12.8V23.9667H6.4V20.7667ZM17.6 10.6333C17.5986 10.9631 17.4954 11.2843 17.3045 11.5532C17.1135 11.822 16.8442 12.0253 16.5333 12.1352V9.13147C16.8442 9.24138 17.1135 9.44466 17.3045 9.71349C17.4954 9.98233 17.5986 10.3036 17.6 10.6333ZM8.53333 1.56667H10.6667C11.9393 1.56808 13.1593 2.07424 14.0592 2.97411C14.9591 3.87398 15.4653 5.09406 15.4667 6.36667V7.04507C13.6291 6.19912 11.6224 5.78464 9.6 5.83333C7.57763 5.78464 5.57092 6.19912 3.73333 7.04507V6.36667C3.73474 5.09406 4.24091 3.87398 5.14078 2.97411C6.04065 2.07424 7.26073 1.56808 8.53333 1.56667ZM15.1371 8.07333L14.5435 8.66693C14.3783 8.82596 14.1736 8.93784 13.9505 8.99093C13.7275 9.04402 13.4943 9.03637 13.2752 8.9688C12.0835 8.61485 10.8424 8.45653 9.6 8.5C8.35767 8.45732 7.11665 8.61655 5.92533 8.97147C5.7062 9.03949 5.47282 9.04736 5.2496 8.99425C5.02639 8.94114 4.82155 8.82902 4.65653 8.6696L4.06293 8.07333C5.7904 7.25145 7.68765 6.84941 9.6 6.9C11.5124 6.84941 13.4096 7.25145 15.1371 8.07333ZM1.6912 11.1933C1.60467 10.9444 1.57889 10.6785 1.616 10.4176C1.65311 10.1567 1.75204 9.90849 1.90453 9.6936C2.09791 9.43393 2.36552 9.23904 2.672 9.13467L2.68533 12.1475C2.45689 12.0766 2.2481 11.9535 2.07553 11.7879C1.90297 11.6222 1.77138 11.4187 1.6912 11.1933ZM3.75467 12.7213L3.7392 9.26L3.9024 9.4232C4.11642 9.63857 4.37107 9.8093 4.65159 9.92548C4.93211 10.0417 5.23291 10.101 5.53653 10.1C5.78707 10.1009 6.03599 10.06 6.27307 9.97893C7.35291 9.66474 8.47612 9.52556 9.6 9.56667C10.7241 9.52581 11.8474 9.66517 12.9275 9.97947C13.1646 10.0604 13.4135 10.1011 13.664 10.1C14.2764 10.0985 14.8635 9.85526 15.2976 9.4232L15.4667 9.25413V12.2333C15.4636 13.745 14.8773 15.1971 13.8298 16.2869C12.7823 17.3768 11.3546 18.0203 9.84424 18.0832C8.33393 18.1461 6.85761 17.6237 5.72309 16.6247C4.58857 15.6258 3.88343 14.2275 3.75467 12.7213ZM9.6 19.1667C10.1391 19.1647 10.676 19.0998 11.2 18.9731V20.2333C11.2 20.6577 11.0314 21.0646 10.7314 21.3647C10.4313 21.6648 10.0243 21.8333 9.6 21.8333C9.17565 21.8333 8.76869 21.6648 8.46863 21.3647C8.16857 21.0646 8 20.6577 8 20.2333V18.9693C8.52366 19.0981 9.06074 19.1644 9.6 19.1667ZM1.06667 30.3667V25.0333C1.06685 24.3945 1.21076 23.764 1.48772 23.1883C1.76469 22.6127 2.16762 22.1068 2.66667 21.708V31.4333H2.13333C1.85044 31.4333 1.57912 31.321 1.37909 31.1209C1.17905 30.9209 1.06667 30.6496 1.06667 30.3667ZM6.93333 28.7667V27.1667H12.2667V28.7667C12.2667 29.4739 11.9857 30.1522 11.4856 30.6523C10.9855 31.1524 10.3072 31.4333 9.6 31.4333C8.89275 31.4333 8.21448 31.1524 7.71438 30.6523C7.21428 30.1522 6.93333 29.4739 6.93333 28.7667ZM13.3333 28.7667V27.1667C13.3333 26.8838 13.221 26.6125 13.0209 26.4124C12.8209 26.2124 12.5496 26.1 12.2667 26.1H6.93333C6.65043 26.1 6.37912 26.2124 6.17909 26.4124C5.97905 26.6125 5.86667 26.8838 5.86667 27.1667V28.7667C5.86655 29.2638 5.96613 29.756 6.15951 30.214C6.35289 30.6721 6.63614 31.0867 6.99253 31.4333H3.73333V21.0808C4.2413 20.8735 4.78469 20.7668 5.33333 20.7667V23.9667C5.33333 24.2496 5.44571 24.5209 5.64575 24.7209C5.84579 24.921 6.1171 25.0333 6.4 25.0333H12.8C13.0829 25.0333 13.3542 24.921 13.5542 24.7209C13.7543 24.5209 13.8667 24.2496 13.8667 23.9667V20.7667C14.4156 20.7669 14.9592 20.8747 15.4667 21.084V29.0136L15.248 29.3619C15.0519 29.6696 14.943 30.0248 14.9328 30.3896C14.9227 30.7544 15.0117 31.1151 15.1904 31.4333H12.2075C12.5639 31.0867 12.8471 30.6721 13.0405 30.214C13.2339 29.756 13.3334 29.2638 13.3333 28.7667ZM30.8091 30.9176C30.7226 31.0754 30.5948 31.2068 30.4394 31.2976C30.284 31.3885 30.1069 31.4354 29.9269 31.4333H17.0064C16.8264 31.4354 16.6493 31.3885 16.4939 31.2976C16.3385 31.2068 16.2108 31.0754 16.1243 30.9176C16.0386 30.7658 15.9959 30.5936 16.0007 30.4194C16.0055 30.2452 16.0576 30.0756 16.1515 29.9288L22.6133 19.6344C22.705 19.4913 22.8312 19.3735 22.9803 19.2919C23.1294 19.2103 23.2967 19.1676 23.4667 19.1676C23.6366 19.1676 23.8039 19.2103 23.953 19.2919C24.1021 19.3735 24.2283 19.4913 24.32 19.6344L30.7797 29.9277C30.8741 30.0745 30.9267 30.2442 30.9319 30.4186C30.9371 30.593 30.8946 30.7655 30.8091 30.9176Z"/>
</mask>
<path d="M25.2267 19.0685C25.0391 18.7719 24.7796 18.5275 24.4722 18.3582C24.1648 18.1888 23.8195 18.1 23.4685 18.1C23.1176 18.1 22.7723 18.1888 22.4649 18.3582C22.1575 18.5275 21.8979 18.7719 21.7104 19.0685L18.9568 23.4557C18.74 22.776 18.3906 22.1459 17.9289 21.602C17.4672 21.058 16.9022 20.611 16.2667 20.2867C16.2333 20.2658 16.1975 20.2492 16.16 20.2371C15.4461 19.8866 14.6619 19.703 13.8667 19.7H12.2667V18.6333C13.3669 18.1717 14.3298 17.4345 15.0624 16.4927C15.795 15.5509 16.2728 14.4363 16.4496 13.2563C17.0636 13.1534 17.6222 12.8387 18.0282 12.3667C18.4342 11.8948 18.662 11.2955 18.6719 10.673C18.6819 10.0505 18.4734 9.44423 18.0827 8.95954C17.692 8.47485 17.1437 8.1424 16.5333 8.02V6.36667C16.5315 4.81129 15.9128 3.32015 14.813 2.22033C13.7132 1.12052 12.222 0.501835 10.6667 0.5L8.53333 0.5C6.97796 0.501835 5.48681 1.12052 4.387 2.22033C3.28718 3.32015 2.6685 4.81129 2.66667 6.36667V8.0248C2.01378 8.15758 1.43402 8.52943 1.04107 9.06747C0.788528 9.41857 0.623768 9.82507 0.560578 10.2529C0.497388 10.6808 0.537606 11.1175 0.677867 11.5267C0.831814 11.977 1.10626 12.3766 1.47137 12.6819C1.83649 12.9872 2.2783 13.1866 2.7488 13.2584C2.93077 14.435 3.41083 15.5455 4.14328 16.4842C4.87574 17.4229 5.83622 18.1585 6.93333 18.6211V19.7H5.33333C4.52829 19.7007 3.73405 19.8854 3.0112 20.2397C2.99533 20.2463 2.97984 20.2538 2.9648 20.2621C2.07566 20.7028 1.32711 21.3829 0.803346 22.2258C0.279579 23.0687 0.00136718 24.041 0 25.0333L0 30.3667C0 30.9325 0.224761 31.4751 0.624839 31.8752C1.02492 32.2752 1.56754 32.5 2.13333 32.5H29.9269C30.2974 32.5029 30.6617 32.4052 30.9811 32.2174C31.3004 32.0295 31.5628 31.7586 31.7403 31.4333C31.9192 31.115 32.0084 30.7541 31.9982 30.3891C31.9881 30.0241 31.879 29.6687 31.6827 29.3608L25.2267 19.0685ZM18.1221 24.7832L16.5333 27.3139V21.7139C16.9972 22.0867 17.3781 22.5523 17.6517 23.0808C17.9253 23.6094 18.0855 24.1892 18.1221 24.7832ZM6.4 20.7667H6.98667C7.10907 21.3695 7.43612 21.9115 7.91239 22.3007C8.38867 22.69 8.98488 22.9027 9.6 22.9027C10.2151 22.9027 10.8113 22.69 11.2876 22.3007C11.7639 21.9115 12.0909 21.3695 12.2133 20.7667H12.8V23.9667H6.4V20.7667ZM17.6 10.6333C17.5986 10.9631 17.4954 11.2843 17.3045 11.5532C17.1135 11.822 16.8442 12.0253 16.5333 12.1352V9.13147C16.8442 9.24138 17.1135 9.44466 17.3045 9.71349C17.4954 9.98233 17.5986 10.3036 17.6 10.6333ZM8.53333 1.56667H10.6667C11.9393 1.56808 13.1593 2.07424 14.0592 2.97411C14.9591 3.87398 15.4653 5.09406 15.4667 6.36667V7.04507C13.6291 6.19912 11.6224 5.78464 9.6 5.83333C7.57763 5.78464 5.57092 6.19912 3.73333 7.04507V6.36667C3.73474 5.09406 4.24091 3.87398 5.14078 2.97411C6.04065 2.07424 7.26073 1.56808 8.53333 1.56667ZM15.1371 8.07333L14.5435 8.66693C14.3783 8.82596 14.1736 8.93784 13.9505 8.99093C13.7275 9.04402 13.4943 9.03637 13.2752 8.9688C12.0835 8.61485 10.8424 8.45653 9.6 8.5C8.35767 8.45732 7.11665 8.61655 5.92533 8.97147C5.7062 9.03949 5.47282 9.04736 5.2496 8.99425C5.02639 8.94114 4.82155 8.82902 4.65653 8.6696L4.06293 8.07333C5.7904 7.25145 7.68765 6.84941 9.6 6.9C11.5124 6.84941 13.4096 7.25145 15.1371 8.07333ZM1.6912 11.1933C1.60467 10.9444 1.57889 10.6785 1.616 10.4176C1.65311 10.1567 1.75204 9.90849 1.90453 9.6936C2.09791 9.43393 2.36552 9.23904 2.672 9.13467L2.68533 12.1475C2.45689 12.0766 2.2481 11.9535 2.07553 11.7879C1.90297 11.6222 1.77138 11.4187 1.6912 11.1933ZM3.75467 12.7213L3.7392 9.26L3.9024 9.4232C4.11642 9.63857 4.37107 9.8093 4.65159 9.92548C4.93211 10.0417 5.23291 10.101 5.53653 10.1C5.78707 10.1009 6.03599 10.06 6.27307 9.97893C7.35291 9.66474 8.47612 9.52556 9.6 9.56667C10.7241 9.52581 11.8474 9.66517 12.9275 9.97947C13.1646 10.0604 13.4135 10.1011 13.664 10.1C14.2764 10.0985 14.8635 9.85526 15.2976 9.4232L15.4667 9.25413V12.2333C15.4636 13.745 14.8773 15.1971 13.8298 16.2869C12.7823 17.3768 11.3546 18.0203 9.84424 18.0832C8.33393 18.1461 6.85761 17.6237 5.72309 16.6247C4.58857 15.6258 3.88343 14.2275 3.75467 12.7213ZM9.6 19.1667C10.1391 19.1647 10.676 19.0998 11.2 18.9731V20.2333C11.2 20.6577 11.0314 21.0646 10.7314 21.3647C10.4313 21.6648 10.0243 21.8333 9.6 21.8333C9.17565 21.8333 8.76869 21.6648 8.46863 21.3647C8.16857 21.0646 8 20.6577 8 20.2333V18.9693C8.52366 19.0981 9.06074 19.1644 9.6 19.1667ZM1.06667 30.3667V25.0333C1.06685 24.3945 1.21076 23.764 1.48772 23.1883C1.76469 22.6127 2.16762 22.1068 2.66667 21.708V31.4333H2.13333C1.85044 31.4333 1.57912 31.321 1.37909 31.1209C1.17905 30.9209 1.06667 30.6496 1.06667 30.3667ZM6.93333 28.7667V27.1667H12.2667V28.7667C12.2667 29.4739 11.9857 30.1522 11.4856 30.6523C10.9855 31.1524 10.3072 31.4333 9.6 31.4333C8.89275 31.4333 8.21448 31.1524 7.71438 30.6523C7.21428 30.1522 6.93333 29.4739 6.93333 28.7667ZM13.3333 28.7667V27.1667C13.3333 26.8838 13.221 26.6125 13.0209 26.4124C12.8209 26.2124 12.5496 26.1 12.2667 26.1H6.93333C6.65043 26.1 6.37912 26.2124 6.17909 26.4124C5.97905 26.6125 5.86667 26.8838 5.86667 27.1667V28.7667C5.86655 29.2638 5.96613 29.756 6.15951 30.214C6.35289 30.6721 6.63614 31.0867 6.99253 31.4333H3.73333V21.0808C4.2413 20.8735 4.78469 20.7668 5.33333 20.7667V23.9667C5.33333 24.2496 5.44571 24.5209 5.64575 24.7209C5.84579 24.921 6.1171 25.0333 6.4 25.0333H12.8C13.0829 25.0333 13.3542 24.921 13.5542 24.7209C13.7543 24.5209 13.8667 24.2496 13.8667 23.9667V20.7667C14.4156 20.7669 14.9592 20.8747 15.4667 21.084V29.0136L15.248 29.3619C15.0519 29.6696 14.943 30.0248 14.9328 30.3896C14.9227 30.7544 15.0117 31.1151 15.1904 31.4333H12.2075C12.5639 31.0867 12.8471 30.6721 13.0405 30.214C13.2339 29.756 13.3334 29.2638 13.3333 28.7667ZM30.8091 30.9176C30.7226 31.0754 30.5948 31.2068 30.4394 31.2976C30.284 31.3885 30.1069 31.4354 29.9269 31.4333H17.0064C16.8264 31.4354 16.6493 31.3885 16.4939 31.2976C16.3385 31.2068 16.2108 31.0754 16.1243 30.9176C16.0386 30.7658 15.9959 30.5936 16.0007 30.4194C16.0055 30.2452 16.0576 30.0756 16.1515 29.9288L22.6133 19.6344C22.705 19.4913 22.8312 19.3735 22.9803 19.2919C23.1294 19.2103 23.2967 19.1676 23.4667 19.1676C23.6366 19.1676 23.8039 19.2103 23.953 19.2919C24.1021 19.3735 24.2283 19.4913 24.32 19.6344L30.7797 29.9277C30.8741 30.0745 30.9267 30.2442 30.9319 30.4186C30.9371 30.593 30.8946 30.7655 30.8091 30.9176Z" fill="white"/>
<path d="M25.2267 19.0685C25.0391 18.7719 24.7796 18.5275 24.4722 18.3582C24.1648 18.1888 23.8195 18.1 23.4685 18.1C23.1176 18.1 22.7723 18.1888 22.4649 18.3582C22.1575 18.5275 21.8979 18.7719 21.7104 19.0685L18.9568 23.4557C18.74 22.776 18.3906 22.1459 17.9289 21.602C17.4672 21.058 16.9022 20.611 16.2667 20.2867C16.2333 20.2658 16.1975 20.2492 16.16 20.2371C15.4461 19.8866 14.6619 19.703 13.8667 19.7H12.2667V18.6333C13.3669 18.1717 14.3298 17.4345 15.0624 16.4927C15.795 15.5509 16.2728 14.4363 16.4496 13.2563C17.0636 13.1534 17.6222 12.8387 18.0282 12.3667C18.4342 11.8948 18.662 11.2955 18.6719 10.673C18.6819 10.0505 18.4734 9.44423 18.0827 8.95954C17.692 8.47485 17.1437 8.1424 16.5333 8.02V6.36667C16.5315 4.81129 15.9128 3.32015 14.813 2.22033C13.7132 1.12052 12.222 0.501835 10.6667 0.5L8.53333 0.5C6.97796 0.501835 5.48681 1.12052 4.387 2.22033C3.28718 3.32015 2.6685 4.81129 2.66667 6.36667V8.0248C2.01378 8.15758 1.43402 8.52943 1.04107 9.06747C0.788528 9.41857 0.623768 9.82507 0.560578 10.2529C0.497388 10.6808 0.537606 11.1175 0.677867 11.5267C0.831814 11.977 1.10626 12.3766 1.47137 12.6819C1.83649 12.9872 2.2783 13.1866 2.7488 13.2584C2.93077 14.435 3.41083 15.5455 4.14328 16.4842C4.87574 17.4229 5.83622 18.1585 6.93333 18.6211V19.7H5.33333C4.52829 19.7007 3.73405 19.8854 3.0112 20.2397C2.99533 20.2463 2.97984 20.2538 2.9648 20.2621C2.07566 20.7028 1.32711 21.3829 0.803346 22.2258C0.279579 23.0687 0.00136718 24.041 0 25.0333L0 30.3667C0 30.9325 0.224761 31.4751 0.624839 31.8752C1.02492 32.2752 1.56754 32.5 2.13333 32.5H29.9269C30.2974 32.5029 30.6617 32.4052 30.9811 32.2174C31.3004 32.0295 31.5628 31.7586 31.7403 31.4333C31.9192 31.115 32.0084 30.7541 31.9982 30.3891C31.9881 30.0241 31.879 29.6687 31.6827 29.3608L25.2267 19.0685ZM18.1221 24.7832L16.5333 27.3139V21.7139C16.9972 22.0867 17.3781 22.5523 17.6517 23.0808C17.9253 23.6094 18.0855 24.1892 18.1221 24.7832ZM6.4 20.7667H6.98667C7.10907 21.3695 7.43612 21.9115 7.91239 22.3007C8.38867 22.69 8.98488 22.9027 9.6 22.9027C10.2151 22.9027 10.8113 22.69 11.2876 22.3007C11.7639 21.9115 12.0909 21.3695 12.2133 20.7667H12.8V23.9667H6.4V20.7667ZM17.6 10.6333C17.5986 10.9631 17.4954 11.2843 17.3045 11.5532C17.1135 11.822 16.8442 12.0253 16.5333 12.1352V9.13147C16.8442 9.24138 17.1135 9.44466 17.3045 9.71349C17.4954 9.98233 17.5986 10.3036 17.6 10.6333ZM8.53333 1.56667H10.6667C11.9393 1.56808 13.1593 2.07424 14.0592 2.97411C14.9591 3.87398 15.4653 5.09406 15.4667 6.36667V7.04507C13.6291 6.19912 11.6224 5.78464 9.6 5.83333C7.57763 5.78464 5.57092 6.19912 3.73333 7.04507V6.36667C3.73474 5.09406 4.24091 3.87398 5.14078 2.97411C6.04065 2.07424 7.26073 1.56808 8.53333 1.56667ZM15.1371 8.07333L14.5435 8.66693C14.3783 8.82596 14.1736 8.93784 13.9505 8.99093C13.7275 9.04402 13.4943 9.03637 13.2752 8.9688C12.0835 8.61485 10.8424 8.45653 9.6 8.5C8.35767 8.45732 7.11665 8.61655 5.92533 8.97147C5.7062 9.03949 5.47282 9.04736 5.2496 8.99425C5.02639 8.94114 4.82155 8.82902 4.65653 8.6696L4.06293 8.07333C5.7904 7.25145 7.68765 6.84941 9.6 6.9C11.5124 6.84941 13.4096 7.25145 15.1371 8.07333ZM1.6912 11.1933C1.60467 10.9444 1.57889 10.6785 1.616 10.4176C1.65311 10.1567 1.75204 9.90849 1.90453 9.6936C2.09791 9.43393 2.36552 9.23904 2.672 9.13467L2.68533 12.1475C2.45689 12.0766 2.2481 11.9535 2.07553 11.7879C1.90297 11.6222 1.77138 11.4187 1.6912 11.1933ZM3.75467 12.7213L3.7392 9.26L3.9024 9.4232C4.11642 9.63857 4.37107 9.8093 4.65159 9.92548C4.93211 10.0417 5.23291 10.101 5.53653 10.1C5.78707 10.1009 6.03599 10.06 6.27307 9.97893C7.35291 9.66474 8.47612 9.52556 9.6 9.56667C10.7241 9.52581 11.8474 9.66517 12.9275 9.97947C13.1646 10.0604 13.4135 10.1011 13.664 10.1C14.2764 10.0985 14.8635 9.85526 15.2976 9.4232L15.4667 9.25413V12.2333C15.4636 13.745 14.8773 15.1971 13.8298 16.2869C12.7823 17.3768 11.3546 18.0203 9.84424 18.0832C8.33393 18.1461 6.85761 17.6237 5.72309 16.6247C4.58857 15.6258 3.88343 14.2275 3.75467 12.7213ZM9.6 19.1667C10.1391 19.1647 10.676 19.0998 11.2 18.9731V20.2333C11.2 20.6577 11.0314 21.0646 10.7314 21.3647C10.4313 21.6648 10.0243 21.8333 9.6 21.8333C9.17565 21.8333 8.76869 21.6648 8.46863 21.3647C8.16857 21.0646 8 20.6577 8 20.2333V18.9693C8.52366 19.0981 9.06074 19.1644 9.6 19.1667ZM1.06667 30.3667V25.0333C1.06685 24.3945 1.21076 23.764 1.48772 23.1883C1.76469 22.6127 2.16762 22.1068 2.66667 21.708V31.4333H2.13333C1.85044 31.4333 1.57912 31.321 1.37909 31.1209C1.17905 30.9209 1.06667 30.6496 1.06667 30.3667ZM6.93333 28.7667V27.1667H12.2667V28.7667C12.2667 29.4739 11.9857 30.1522 11.4856 30.6523C10.9855 31.1524 10.3072 31.4333 9.6 31.4333C8.89275 31.4333 8.21448 31.1524 7.71438 30.6523C7.21428 30.1522 6.93333 29.4739 6.93333 28.7667ZM13.3333 28.7667V27.1667C13.3333 26.8838 13.221 26.6125 13.0209 26.4124C12.8209 26.2124 12.5496 26.1 12.2667 26.1H6.93333C6.65043 26.1 6.37912 26.2124 6.17909 26.4124C5.97905 26.6125 5.86667 26.8838 5.86667 27.1667V28.7667C5.86655 29.2638 5.96613 29.756 6.15951 30.214C6.35289 30.6721 6.63614 31.0867 6.99253 31.4333H3.73333V21.0808C4.2413 20.8735 4.78469 20.7668 5.33333 20.7667V23.9667C5.33333 24.2496 5.44571 24.5209 5.64575 24.7209C5.84579 24.921 6.1171 25.0333 6.4 25.0333H12.8C13.0829 25.0333 13.3542 24.921 13.5542 24.7209C13.7543 24.5209 13.8667 24.2496 13.8667 23.9667V20.7667C14.4156 20.7669 14.9592 20.8747 15.4667 21.084V29.0136L15.248 29.3619C15.0519 29.6696 14.943 30.0248 14.9328 30.3896C14.9227 30.7544 15.0117 31.1151 15.1904 31.4333H12.2075C12.5639 31.0867 12.8471 30.6721 13.0405 30.214C13.2339 29.756 13.3334 29.2638 13.3333 28.7667ZM30.8091 30.9176C30.7226 31.0754 30.5948 31.2068 30.4394 31.2976C30.284 31.3885 30.1069 31.4354 29.9269 31.4333H17.0064C16.8264 31.4354 16.6493 31.3885 16.4939 31.2976C16.3385 31.2068 16.2108 31.0754 16.1243 30.9176C16.0386 30.7658 15.9959 30.5936 16.0007 30.4194C16.0055 30.2452 16.0576 30.0756 16.1515 29.9288L22.6133 19.6344C22.705 19.4913 22.8312 19.3735 22.9803 19.2919C23.1294 19.2103 23.2967 19.1676 23.4667 19.1676C23.6366 19.1676 23.8039 19.2103 23.953 19.2919C24.1021 19.3735 24.2283 19.4913 24.32 19.6344L30.7797 29.9277C30.8741 30.0745 30.9267 30.2442 30.9319 30.4186C30.9371 30.593 30.8946 30.7655 30.8091 30.9176Z" stroke="#0B8468" stroke-width="2" mask="url(#path-1-inside-1_7001_14659)"/>
</g>
<g filter="url(#filter1_d_7001_14659)">
<path d="M12.2137 15.1378C12.2759 15.0128 12.2862 14.8684 12.2425 14.7359C12.1987 14.6033 12.1044 14.4934 11.9801 14.43C11.855 14.366 11.7098 14.3536 11.5757 14.3955C11.4415 14.4374 11.3292 14.5302 11.2628 14.654C11.0803 14.9203 10.83 15.133 10.5377 15.2699C10.2453 15.4068 9.92172 15.463 9.60036 15.4327C9.27966 15.4621 8.95692 15.4056 8.66531 15.2689C8.37371 15.1322 8.12376 14.9204 7.94116 14.6551C7.87403 14.5351 7.76315 14.4457 7.63166 14.4055C7.50018 14.3653 7.35825 14.3774 7.2355 14.4393C7.11274 14.5013 7.01864 14.6082 6.97284 14.7379C6.92704 14.8675 6.93308 15.0098 6.98969 15.1351C7.25811 15.5799 7.64355 15.9423 8.10394 16.1829C8.56434 16.4235 9.08198 16.533 9.60036 16.4994C10.1189 16.5337 10.6369 16.4249 11.0978 16.1848C11.5587 15.9446 11.9447 15.5824 12.2137 15.1378Z" fill="white"/>
<path d="M11.7246 14.873L11.752 14.875L11.7529 14.876C11.7598 14.8795 11.7651 14.8852 11.7676 14.8926C11.7694 14.8982 11.7672 14.9036 11.7656 14.9092C11.5452 15.2612 11.2359 15.549 10.8672 15.7412C10.5352 15.9142 10.1668 16.0049 9.79395 16.0059L9.63379 16L9.60059 15.998L9.56836 16C9.1416 16.0276 8.71501 15.9382 8.33594 15.7402C7.97124 15.5497 7.664 15.2652 7.44434 14.918C7.44398 14.9134 7.44277 14.9087 7.44434 14.9043C7.44721 14.8962 7.4533 14.8896 7.46094 14.8857C7.46855 14.882 7.47722 14.8813 7.48535 14.8838L7.50488 14.8994L7.5166 14.9199L7.5293 14.9385C7.76224 15.2769 8.08111 15.5473 8.45312 15.7217C8.81112 15.8895 9.20577 15.9608 9.59961 15.9326C9.99458 15.9619 10.3909 15.8909 10.75 15.7227C11.123 15.5479 11.442 15.2763 11.6748 14.9365L11.6904 14.9141L11.7031 14.8906C11.7076 14.8822 11.7155 14.8759 11.7246 14.873Z" stroke="#0B8468"/>
</g>
<g filter="url(#filter2_d_7001_14659)">
<path d="M10.1332 28.7676H9.06654C8.92509 28.7676 8.78943 28.8238 8.68941 28.9238C8.58939 29.0238 8.5332 29.1595 8.5332 29.3009C8.5332 29.4424 8.58939 29.578 8.68941 29.678C8.78943 29.7781 8.92509 29.8342 9.06654 29.8342H10.1332C10.2747 29.8342 10.4103 29.7781 10.5103 29.678C10.6103 29.578 10.6665 29.4424 10.6665 29.3009C10.6665 29.1595 10.6103 29.0238 10.5103 28.9238C10.4103 28.8238 10.2747 28.7676 10.1332 28.7676Z" fill="white"/>
<path d="M9.06641 29.2676H10.1328C10.1417 29.2676 10.151 29.2711 10.1572 29.2773C10.1633 29.2835 10.167 29.2921 10.167 29.3008C10.167 29.3095 10.1633 29.318 10.1572 29.3242C10.151 29.3305 10.1417 29.334 10.1328 29.334H9.06641C9.05761 29.3339 9.04919 29.3304 9.04297 29.3242C9.0368 29.318 9.0332 29.3096 9.0332 29.3008C9.03324 29.292 9.03675 29.2836 9.04297 29.2773C9.04919 29.2711 9.05761 29.2676 9.06641 29.2676Z" stroke="#0B8468"/>
</g>
<g filter="url(#filter3_d_7001_14659)">
<path d="M24.2438 25.0324H22.6006L23.9174 22.9582C23.9933 22.8387 24.0185 22.694 23.9876 22.5558C23.9567 22.4177 23.8722 22.2975 23.7526 22.2217C23.6331 22.1459 23.4884 22.1206 23.3502 22.1516C23.2121 22.1825 23.0919 22.267 23.0161 22.3865L21.4588 24.8398C21.3805 24.9643 21.3371 25.1075 21.3331 25.2545C21.329 25.4015 21.3645 25.5468 21.4357 25.6754C21.507 25.8041 21.6114 25.9112 21.7382 25.9857C21.8649 26.0602 22.0093 26.0993 22.1564 26.099H23.7649L22.0742 28.4644L21.9958 28.1513C21.9812 28.081 21.9525 28.0144 21.9115 27.9555C21.8704 27.8966 21.818 27.8466 21.7571 27.8085C21.6963 27.7703 21.6285 27.7449 21.5576 27.7336C21.4867 27.7223 21.4142 27.7254 21.3446 27.7428C21.275 27.7602 21.2095 27.7915 21.1523 27.8347C21.095 27.878 21.047 27.9324 21.0113 27.9946C20.9755 28.0569 20.9527 28.1257 20.9442 28.197C20.9357 28.2683 20.9416 28.3405 20.9617 28.4094L21.3494 29.9614C21.3782 30.0769 21.4448 30.1793 21.5385 30.2526C21.6323 30.3259 21.7478 30.3657 21.8668 30.3657C21.9105 30.3656 21.954 30.3602 21.9964 30.3497L23.5484 29.9614C23.6186 29.9468 23.6852 29.9181 23.7441 29.877C23.803 29.836 23.8531 29.7835 23.8912 29.7227C23.9293 29.6619 23.9548 29.594 23.9661 29.5232C23.9774 29.4523 23.9742 29.3798 23.9568 29.3102C23.9395 29.2405 23.9082 29.1751 23.8649 29.1179C23.8217 29.0606 23.7673 29.0126 23.705 28.9769C23.6428 28.9411 23.574 28.9183 23.5027 28.9098C23.4314 28.9013 23.3592 28.9072 23.2902 28.9273L23.0038 28.9988L24.9372 26.2937C24.9533 26.2708 24.9678 26.2467 24.9804 26.2217C25.0431 26.0963 25.0726 25.9569 25.0663 25.8169C25.0599 25.6768 25.0178 25.5407 24.944 25.4215C24.8701 25.3023 24.7671 25.204 24.6445 25.1359C24.522 25.0678 24.384 25.0321 24.2438 25.0324Z" fill="white"/>
<path d="M23.4434 29.4062C23.4478 29.4068 23.4522 29.4079 23.4561 29.4102C23.4598 29.4123 23.4631 29.4155 23.4658 29.4189C23.4685 29.4225 23.4706 29.4273 23.4717 29.4316C23.4727 29.4358 23.4733 29.4401 23.4727 29.4443C23.472 29.4487 23.4701 29.4533 23.4678 29.457C23.4654 29.4608 23.4617 29.4642 23.458 29.4668C23.4544 29.4692 23.4505 29.4708 23.4463 29.4717L23.4365 29.4736L23.4268 29.4766L21.875 29.8643C21.8721 29.8649 21.8692 29.8642 21.8662 29.8643C21.8591 29.8641 21.8523 29.8628 21.8467 29.8584L21.835 29.8408V29.8398L21.8262 29.8076L23.125 29.4834L23.4111 29.4121L23.4209 29.4102L23.4297 29.4072C23.434 29.406 23.4389 29.4057 23.4434 29.4062ZM24.5664 25.8398C24.5689 25.8946 24.5577 25.949 24.5332 25.998C24.5323 25.9997 24.5313 26.0013 24.5303 26.0029L22.5967 28.708L21.8223 29.791L21.4473 28.2881L21.4443 28.2793L21.4414 28.2695L21.4404 28.2559C21.441 28.2516 21.4432 28.2479 21.4453 28.2441C21.4475 28.2403 21.4505 28.2361 21.4541 28.2334C21.4576 28.2309 21.4616 28.2286 21.4658 28.2275C21.47 28.2265 21.4743 28.2269 21.4785 28.2275C21.4829 28.2282 21.4874 28.23 21.4912 28.2324C21.495 28.2348 21.4984 28.2376 21.501 28.2412C21.5035 28.2449 21.5059 28.2495 21.5068 28.2539L21.5088 28.2627L21.5107 28.2725L21.5889 28.5859L21.8516 29.6348L22.4814 28.7549L24.1719 26.3896L24.5654 25.8379L24.5664 25.8398ZM24.2451 25.5322C24.2999 25.5322 24.3535 25.5466 24.4014 25.5732C24.4141 25.5803 24.4249 25.59 24.4365 25.5986H22.1553C22.0977 25.5987 22.0408 25.5839 21.9912 25.5547C21.9808 25.5485 21.9725 25.5395 21.9629 25.5322H24.2451ZM23.459 22.6396C23.4675 22.6377 23.4769 22.639 23.4844 22.6436C23.4919 22.6483 23.498 22.6563 23.5 22.665L23.4951 22.6904L22.1787 24.7646L21.8359 25.3027C21.835 25.2913 21.8327 25.28 21.833 25.2686C21.8346 25.2117 21.8509 25.1558 21.8809 25.1074L23.4385 22.6543C23.4432 22.6469 23.4505 22.6417 23.459 22.6396Z" stroke="#0B8468"/>
</g>
</g>
<defs>
<filter id="filter0_d_7001_14659" x="-4" y="0.5" width="39.999" height="40" filterUnits="userSpaceOnUse" color-interpolation-filters="sRGB">
<feFlood flood-opacity="0" result="BackgroundImageFix"/>
<feColorMatrix in="SourceAlpha" type="matrix" values="0 0 0 0 0 0 0 0 0 0 0 0 0 0 0 0 0 0 127 0" result="hardAlpha"/>
<feOffset dy="4"/>
<feGaussianBlur stdDeviation="2"/>
<feComposite in2="hardAlpha" operator="out"/>
<feColorMatrix type="matrix" values="0 0 0 0 0 0 0 0 0 0 0 0 0 0 0 0 0 0 0.25 0"/>
<feBlend mode="normal" in2="BackgroundImageFix" result="effect1_dropShadow_7001_14659"/>
<feBlend mode="normal" in="SourceGraphic" in2="effect1_dropShadow_7001_14659" result="shape"/>
</filter>
<filter id="filter1_d_7001_14659" x="2.94238" y="14.3711" width="13.3271" height="10.1348" filterUnits="userSpaceOnUse" color-interpolation-filters="sRGB">
<feFlood flood-opacity="0" result="BackgroundImageFix"/>
<feColorMatrix in="SourceAlpha" type="matrix" values="0 0 0 0 0 0 0 0 0 0 0 0 0 0 0 0 0 0 127 0" result="hardAlpha"/>
<feOffset dy="4"/>
<feGaussianBlur stdDeviation="2"/>
<feComposite in2="hardAlpha" operator="out"/>
<feColorMatrix type="matrix" values="0 0 0 0 0 0 0 0 0 0 0 0 0 0 0 0 0 0 0.25 0"/>
<feBlend mode="normal" in2="BackgroundImageFix" result="effect1_dropShadow_7001_14659"/>
<feBlend mode="normal" in="SourceGraphic" in2="effect1_dropShadow_7001_14659" result="shape"/>
</filter>
<filter id="filter2_d_7001_14659" x="4.5332" y="28.7676" width="10.1338" height="9.06641" filterUnits="userSpaceOnUse" color-interpolation-filters="sRGB">
<feFlood flood-opacity="0" result="BackgroundImageFix"/>
<feColorMatrix in="SourceAlpha" type="matrix" values="0 0 0 0 0 0 0 0 0 0 0 0 0 0 0 0 0 0 127 0" result="hardAlpha"/>
<feOffset dy="4"/>
<feGaussianBlur stdDeviation="2"/>
<feComposite in2="hardAlpha" operator="out"/>
<feColorMatrix type="matrix" values="0 0 0 0 0 0 0 0 0 0 0 0 0 0 0 0 0 0 0.25 0"/>
<feBlend mode="normal" in2="BackgroundImageFix" result="effect1_dropShadow_7001_14659"/>
<feBlend mode="normal" in="SourceGraphic" in2="effect1_dropShadow_7001_14659" result="shape"/>
</filter>
<filter id="filter3_d_7001_14659" x="16.9404" y="22.1387" width="12.127" height="16.2266" filterUnits="userSpaceOnUse" color-interpolation-filters="sRGB">
<feFlood flood-opacity="0" result="BackgroundImageFix"/>
<feColorMatrix in="SourceAlpha" type="matrix" values="0 0 0 0 0 0 0 0 0 0 0 0 0 0 0 0 0 0 127 0" result="hardAlpha"/>
<feOffset dy="4"/>
<feGaussianBlur stdDeviation="2"/>
<feComposite in2="hardAlpha" operator="out"/>
<feColorMatrix type="matrix" values="0 0 0 0 0 0 0 0 0 0 0 0 0 0 0 0 0 0 0.25 0"/>
<feBlend mode="normal" in2="BackgroundImageFix" result="effect1_dropShadow_7001_14659"/>
<feBlend mode="normal" in="SourceGraphic" in2="effect1_dropShadow_7001_14659" result="shape"/>
</filter>
<clipPath id="clip0_7001_14659">
<rect width="32" height="32" fill="white" transform="translate(0 0.5)"/>
</clipPath>
</defs>
</svg>
