<svg width="33" height="33" viewBox="0 0 33 33" fill="none" xmlns="http://www.w3.org/2000/svg">
<g clip-path="url(#clip0_7001_9842)">
<path d="M29.5574 25.6731C29.2111 23.5936 27.753 21.8873 25.7525 21.2205L21.3118 19.7402V19.0801H20.2795V20.0483L19.5089 23.1301L17.4243 20.6285H15.9084L13.8238 23.1301L13.0537 20.0483V19.0801H12.0214V19.7402L7.58066 21.2205C5.58066 21.8873 4.1226 23.5936 3.77576 25.6731L2.6377 32.4994H16.6666H30.6955L29.5574 25.6731ZM7.42531 31.4672H3.85679L4.02247 30.471L7.48157 30.9036L7.42531 31.4672ZM14.1546 31.4672H8.46273L8.92208 26.8736L7.89499 26.7709L7.58428 29.8765L4.19228 29.4522L4.79357 25.8429C5.07744 24.1418 6.27021 22.7456 7.90686 22.2001L12.1716 20.7781L13.3154 25.3526L14.4792 23.9559L15.095 24.8798L14.1546 31.4672ZM18.136 31.4672H16.6666H15.1972L16.1732 24.6352L15.1688 23.1286L16.392 21.6607H16.9407L18.1639 23.1286L17.1595 24.6352L18.136 31.4672ZM25.4382 26.7704L24.4111 26.8731L24.8705 31.4667H19.1786L18.2377 24.8793L18.8534 23.9554L20.0178 25.3526L21.1616 20.7781L25.4263 22.2001C27.063 22.7456 28.2558 24.1418 28.5396 25.8434L29.1409 29.4527L25.7489 29.877L25.4382 26.7704ZM25.9079 31.4672L25.8516 30.9036L29.3107 30.471L29.4764 31.4672H25.9079Z" fill="#0B8468"/>
<path d="M8.48101 10.2342C8.11869 10.6786 7.89211 11.2381 7.89211 11.8548C7.89211 13.1792 8.89856 14.261 10.1848 14.4066C10.448 15.3124 10.9342 16.1428 11.6196 16.8283L13.6325 18.8412C14.1197 19.3284 14.7675 19.5968 15.457 19.5968H17.8761C18.5651 19.5968 19.2134 19.3284 19.7006 18.8412L21.7135 16.8283C22.3989 16.1428 22.8851 15.3119 23.1484 14.4066C24.434 14.261 25.4405 13.1792 25.4405 11.8548C25.4405 11.2381 25.2139 10.6786 24.8516 10.2342C25.4885 10.0422 25.9566 9.4569 25.9566 8.75806C25.9566 7.90439 25.2619 7.20968 24.4082 7.20968H24.3349C23.9236 4.16297 21.7001 1.61381 18.7308 0.790581V0.5H14.6018V0.790581C11.6325 1.61381 9.40849 4.16348 8.99765 7.20968H8.92436C8.07069 7.20968 7.37598 7.90439 7.37598 8.75806C7.37598 9.4569 7.84411 10.0422 8.48101 10.2342ZM8.92436 11.8548C8.92436 11.1828 9.3574 10.6151 9.95662 10.4014V12.8138C9.95662 12.9826 9.96643 13.1498 9.98088 13.316C9.36927 13.109 8.92436 12.5356 8.92436 11.8548ZM22.3432 12.8138C22.3437 14.0546 21.8606 15.221 20.9832 16.0985L18.9703 18.1114C18.6823 18.3994 18.2833 18.5645 17.8756 18.5645H15.4565C15.0488 18.5645 14.6503 18.3994 14.3618 18.1114L12.3489 16.0985C11.4715 15.221 10.9884 14.0546 10.9884 12.8138V10.3065H22.3432V12.8138ZM23.3517 13.3155C23.3662 13.1498 23.376 12.9826 23.376 12.8138V10.4014C23.9752 10.6151 24.4082 11.1828 24.4082 11.8548C24.4082 12.5356 23.9633 13.109 23.3517 13.3155ZM14.6018 1.86568V6.17742H15.634V1.53226H17.6986V6.17742H18.7308V1.86568C21.1231 2.64142 22.9084 4.72452 23.2965 7.20968H10.0361C10.4242 4.72452 12.2095 2.64142 14.6018 1.86568ZM8.92436 8.24194H24.4082C24.6926 8.24194 24.9244 8.47368 24.9244 8.75806C24.9244 9.04245 24.6926 9.27419 24.4082 9.27419H8.92436C8.63998 9.27419 8.40823 9.04245 8.40823 8.75806C8.40823 8.47368 8.63998 8.24194 8.92436 8.24194Z" fill="#0B8468"/>
<path d="M20.7959 5.14453H19.7637V6.17679H20.7959V5.14453Z" fill="#0B8468"/>
<path d="M13.5694 5.14453H12.5371V6.17679H13.5694V5.14453Z" fill="#0B8468"/>
</g>
<defs>
<clipPath id="clip0_7001_9842">
<rect width="32" height="32" fill="white" transform="translate(0.666992 0.5)"/>
</clipPath>
</defs>
</svg>
