<svg width="33" height="33" viewBox="0 0 33 33" fill="none" xmlns="http://www.w3.org/2000/svg">
<g clip-path="url(#clip0_7001_2905)">
<path d="M29.333 14.94C30.7495 14.621 31.833 12.978 31.833 11C31.833 8.7945 30.4875 7 28.833 7C28.476 7 28.132 7.0935 27.808 7.251C27.7785 6.9565 27.7025 6.678 27.5795 6.423C28.352 5.865 28.833 4.9665 28.833 4C28.833 2.3455 27.4875 1 25.833 1C24.568 1 23.483 1.79 23.048 2.914C22.288 2.339 21.346 2 20.333 2C18.4075 2 16.7155 3.22 16.09 5.0115C14.825 5.1345 13.833 6.2035 13.833 7.5C13.833 8.8785 14.9545 10 16.333 10H21.1755C20.958 10.4555 20.833 10.9625 20.833 11.5C20.833 13.2595 22.1395 14.716 23.833 14.96V16H16.833V10.6095L12.833 9.6095V4H5.83301V9.6095L1.83301 10.6095V16H0.833008V16.5C0.833008 25.0465 7.78651 32 16.333 32C24.8795 32 31.833 25.0465 31.833 16.5V16H29.333V14.94ZM30.833 11C30.833 12.368 30.184 13.554 29.333 13.897V12H28.333V13.898C27.997 13.764 27.6865 13.4995 27.4325 13.1205C27.687 12.6355 27.833 12.085 27.833 11.5C27.833 10.7225 27.575 10.006 27.145 9.4245C27.5115 8.5535 28.153 8 28.833 8C29.917 8 30.833 9.374 30.833 11ZM25.833 2C26.936 2 27.833 2.897 27.833 4C27.833 4.652 27.5035 5.259 26.9745 5.6295C26.5345 5.2425 25.964 5 25.333 5C25.081 5 24.842 5.0485 24.6125 5.1185C24.447 4.604 24.1945 4.1335 23.8715 3.7225C24.0085 2.745 24.833 2 25.833 2ZM14.833 7.5C14.833 6.674 15.504 6.002 16.335 6.002H16.339C16.368 6.006 16.3975 6.0095 16.427 6.0115L16.843 6.04L16.946 5.636C17.34 4.084 18.733 3 20.333 3C21.9375 3 23.309 4.089 23.707 5.617C23.1765 6.0755 22.833 6.7455 22.833 7.5H23.833C23.833 6.673 24.506 6 25.333 6C26.16 6 26.833 6.673 26.833 7.5V8.022C26.6695 8.2165 26.5255 8.439 26.3965 8.6795C25.817 8.2545 25.105 8 24.333 8C23.382 8 22.5195 8.3825 21.888 9H16.333C15.506 9 14.833 8.327 14.833 7.5ZM21.833 11.5C21.833 10.1215 22.9545 9 24.333 9C25.7115 9 26.833 10.1215 26.833 11.5C26.833 12.707 25.9725 13.717 24.833 13.9495V11.207L25.6865 10.3535L24.9795 9.6465L23.833 10.793V12.066L23.1105 11.584L22.556 12.416L23.833 13.2675V13.9495C22.6935 13.717 21.833 12.707 21.833 11.5ZM24.833 14.96C25.6035 14.849 26.294 14.49 26.8175 13.962C27.241 14.478 27.7625 14.8145 28.333 14.9395V16H24.833V14.96ZM15.833 11.3905V16H15.333H12.833V10.6405L15.833 11.3905ZM6.83301 7H11.833V16H6.83301V7ZM11.833 5V6H6.83301V5H11.833ZM2.83301 11.3905L5.83301 10.6405V16H2.83301V11.3905ZM15.333 17H16.333C16.6085 17 16.833 17.2245 16.833 17.5C16.833 17.7755 16.6085 18 16.333 18H7.33301C6.50601 18 5.83301 18.673 5.83301 19.5C5.83301 20.327 6.50601 21 7.33301 21H12.333C12.6085 21 12.833 21.2245 12.833 21.5C12.833 21.7755 12.6085 22 12.333 22H2.92001C2.28151 20.4485 1.90151 18.7645 1.84151 17H15.333ZM5.39001 26H18.333C18.6085 26 18.833 26.2245 18.833 26.5C18.833 26.7755 18.6085 27 18.333 27H14.833C14.006 27 13.333 27.673 13.333 28.5C13.333 29.327 14.006 30 14.833 30H19.833C20.087 30 20.289 30.193 20.3205 30.4385C19.053 30.802 17.716 31 16.333 31C11.969 31 8.05051 29.0605 5.39001 26ZM24.333 20H20.833C20.5575 20 20.333 19.7755 20.333 19.5C20.333 19.2245 20.5575 19 20.833 19H30.6145C30.3 20.8025 29.6505 22.4905 28.734 24H22.333C22.0575 24 21.833 23.7755 21.833 23.5C21.833 23.2245 22.0575 23 22.333 23H24.333C25.16 23 25.833 22.327 25.833 21.5C25.833 20.673 25.16 20 24.333 20ZM30.7515 18H20.833C20.006 18 19.333 18.673 19.333 19.5C19.333 20.327 20.006 21 20.833 21H24.333C24.6085 21 24.833 21.2245 24.833 21.5C24.833 21.7755 24.6085 22 24.333 22H22.333C21.506 22 20.833 22.673 20.833 23.5C20.833 24.327 21.506 25 22.333 25H28.07C26.3825 27.3235 24.025 29.1295 21.281 30.129C21.1145 29.482 20.5315 29 19.833 29H14.833C14.5575 29 14.333 28.7755 14.333 28.5C14.333 28.2245 14.5575 28 14.833 28H18.333C19.16 28 19.833 27.327 19.833 26.5C19.833 25.673 19.16 25 18.333 25H4.59601C4.13801 24.3695 3.72851 23.7015 3.37501 23H12.333C13.16 23 13.833 22.327 13.833 21.5C13.833 20.673 13.16 20 12.333 20H7.33301C7.05751 20 6.83301 19.7755 6.83301 19.5C6.83301 19.2245 7.05751 19 7.33301 19H16.333C17.16 19 17.833 18.327 17.833 17.5C17.833 17.324 17.797 17.157 17.741 17H30.8245C30.813 17.3365 30.786 17.6695 30.7515 18Z" fill="#0B8468"/>
<path d="M20.3331 4C19.1916 4 18.1961 4.771 17.9121 5.8755L18.8806 6.1245C19.0506 5.4625 19.6481 5 20.3331 5C20.5966 5 20.8561 5.0695 21.0831 5.2005L21.5831 4.3345C21.2051 4.1155 20.7726 4 20.3331 4Z" fill="#0B8468"/>
<path d="M3.83301 14H4.83301V15H3.83301V14Z" fill="#0B8468"/>
<path d="M3.83301 12H4.83301V13H3.83301V12Z" fill="#0B8468"/>
<path d="M13.833 12H14.833V13H13.833V12Z" fill="#0B8468"/>
<path d="M13.833 14H14.833V15H13.833V14Z" fill="#0B8468"/>
<path d="M7.83301 8H8.83301V9H7.83301V8Z" fill="#0B8468"/>
<path d="M9.83301 8H10.833V9H9.83301V8Z" fill="#0B8468"/>
<path d="M9.83301 10H10.833V11H9.83301V10Z" fill="#0B8468"/>
<path d="M7.83301 10H8.83301V11H7.83301V10Z" fill="#0B8468"/>
<path d="M7.83301 12H8.83301V13H7.83301V12Z" fill="#0B8468"/>
<path d="M9.83301 12H10.833V13H9.83301V12Z" fill="#0B8468"/>
<path d="M7.83301 14H8.83301V15H7.83301V14Z" fill="#0B8468"/>
<path d="M9.83301 14H10.833V15H9.83301V14Z" fill="#0B8468"/>
</g>
<defs>
<clipPath id="clip0_7001_2905">
<rect width="32" height="32" fill="white" transform="translate(0.333008 0.5)"/>
</clipPath>
</defs>
</svg>
