<svg width="32" height="33" viewBox="0 0 32 33" fill="none" xmlns="http://www.w3.org/2000/svg">
<path d="M24.38 23.135C23.7 22.725 22.955 22.46 22.17 22.355L19.5 21.985V20.48C19.875 20.24 20.23 19.96 20.555 19.64C21.69 18.525 22.36 17.07 22.475 15.5H22.5C23.605 15.5 24.5 14.605 24.5 13.5C24.5 13.09 24.375 12.71 24.16 12.395C24.8 12.16 25.265 11.55 25.265 10.825C25.265 9.9 24.515 9.15 23.59 9.15H23.32C22.87 6.45 20.92 4.175 18.315 3.32C18.1 2.56 17.41 2 16.585 2H15.415C14.59 2 13.9 2.56 13.685 3.32C11.08 4.18 9.13 6.455 8.68 9.15H8.41C7.485 9.15 6.735 9.9 6.735 10.825C6.735 11.545 7.195 12.16 7.84 12.395C7.63 12.715 7.5 13.09 7.5 13.5C7.5 14.605 8.395 15.5 9.5 15.5H9.535C9.745 17.56 10.88 19.35 12.5 20.43V21.985L9.83 22.355C9.045 22.465 8.3 22.725 7.62 23.135C6.005 24.11 5 25.89 5 27.78V30.5C5 30.775 5.225 31 5.5 31H26.5C26.775 31 27 30.775 27 30.5V27.78C27 25.89 25.995 24.11 24.38 23.135ZM11.915 23.075L12.56 22.985C12.695 23.6 13.055 24.145 13.59 24.5C14.32 24.99 15.16 25.23 16 25.23C16.84 25.23 17.68 24.985 18.41 24.5C18.945 24.145 19.31 23.595 19.44 22.985L20.06 23.07V26.01C20.06 26.555 19.615 27 19.07 27H12.9C12.355 27 11.91 26.555 11.91 26.01V23.07L11.915 23.075ZM22.5 14.5V12.5C23.05 12.5 23.5 12.95 23.5 13.5C23.5 14.05 23.05 14.5 22.5 14.5ZM22.305 9.15H18.96C19.085 8.81 19.16 8.44 19.16 8.055C19.16 7.265 18.87 6.545 18.39 5.99V4.41C20.4 5.22 21.89 7.025 22.3 9.15H22.305ZM13.815 8.055C13.815 6.855 14.79 5.88 15.99 5.88C17.19 5.88 18.165 6.855 18.165 8.055C18.165 9.255 17.19 10.23 15.99 10.23C14.79 10.23 13.815 9.255 13.815 8.055ZM15.415 3H16.585C17.03 3 17.395 3.365 17.395 3.81V5.215C16.97 5.005 16.495 4.885 15.99 4.885C15.485 4.885 15.025 5.005 14.61 5.205V3.81C14.61 3.365 14.975 3 15.42 3H15.415ZM13.605 4.41V5.965C13.115 6.525 12.815 7.255 12.815 8.055C12.815 8.44 12.89 8.81 13.015 9.15H9.695C10.105 7.025 11.6 5.22 13.605 4.41ZM8.41 10.15H13.61C14.19 10.81 15.04 11.225 15.985 11.225C16.93 11.225 17.78 10.805 18.36 10.15H23.585C23.955 10.15 24.26 10.455 24.26 10.825C24.26 11.195 23.955 11.5 23.585 11.5H8.405C8.035 11.5 7.73 11.195 7.73 10.825C7.73 10.455 8.035 10.15 8.405 10.15H8.41ZM8.5 13.5C8.5 12.95 8.95 12.5 9.5 12.5V14.5C8.95 14.5 8.5 14.05 8.5 13.5ZM10.5 14.8V12.5H21.5V15C21.5 16.49 20.915 17.88 19.855 18.925C18.795 19.965 17.365 20.525 15.9 20.5C12.925 20.445 10.505 17.89 10.505 14.8H10.5ZM15.88 21.5H16.005C16.875 21.5 17.72 21.33 18.505 21V22.46C18.505 22.945 18.265 23.395 17.86 23.665C16.735 24.415 15.275 24.415 14.15 23.665C13.745 23.395 13.505 22.945 13.505 22.46V20.975C14.24 21.295 15.045 21.485 15.885 21.5H15.88ZM9.965 23.345L10.915 23.215V26.015C10.915 27.11 11.805 28.005 12.905 28.005H19.075C20.17 28.005 21.065 27.115 21.065 26.015V23.215L22.035 23.35C22.405 23.4 22.76 23.5 23.105 23.63V30.005H8.9V23.63C9.245 23.5 9.6 23.4 9.97 23.35L9.965 23.345ZM6 27.78C6 26.34 6.725 24.98 7.9 24.16V30H6V27.78ZM26 30H24.1V24.16C25.275 24.98 26 26.335 26 27.78V30ZM15.99 9.46C16.765 9.46 17.395 8.83 17.395 8.055C17.395 7.28 16.765 6.65 15.99 6.65C15.215 6.65 14.585 7.28 14.585 8.055C14.585 8.83 15.215 9.46 15.99 9.46ZM15.99 7.65C16.215 7.65 16.395 7.83 16.395 8.055C16.395 8.28 16.215 8.46 15.99 8.46C15.765 8.46 15.585 8.28 15.585 8.055C15.585 7.83 15.765 7.65 15.99 7.65Z" fill="#0B8468"/>
</svg>
