<svg width="33" height="33" viewBox="0 0 33 33" fill="none" xmlns="http://www.w3.org/2000/svg">
<g clip-path="url(#clip0_7001_6501)">
<path d="M25.9717 24.8293L25.1524 24.5883C25.4939 24.3284 25.7036 23.937 25.7294 23.5068C25.756 23.0614 25.5822 22.6334 25.2526 22.3326L21.6353 19.0316C22.4824 18.0427 23.0587 16.8155 23.2472 15.4658H23.5259C24.4395 15.4658 25.2231 14.787 25.3098 13.9203C25.3584 13.4347 25.1995 12.9497 24.8739 12.5899C24.7163 12.4157 24.5259 12.2779 24.3166 12.1815V9.95467H24.8499C25.0585 9.95467 25.2421 9.81673 25.3001 9.61629C25.3582 9.41586 25.2767 9.20117 25.1004 9.08967C24.8542 8.93404 24.5922 8.78661 24.3166 8.64698V7.98286C24.3166 6.46261 23.7841 4.99605 22.8138 3.83293L22.8137 2.97256C22.8136 2.16168 22.1537 1.50206 21.3429 1.50206H20.8418C20.5231 1.50206 20.2407 1.65725 20.0639 1.89525C19.3526 1.63419 18.6054 1.50206 17.8358 1.50206H17.8035V1.46981C17.8036 0.934999 17.3686 0.5 16.8338 0.5H15.8318C15.2971 0.5 14.8621 0.934999 14.8621 1.46975V1.502H14.8298C14.0613 1.502 13.3137 1.63456 12.602 1.89556C12.4251 1.65731 12.1426 1.502 11.8238 1.502H11.3227C10.5118 1.502 9.85208 2.16168 9.85196 2.97256L9.85183 3.83287C8.88146 4.99599 8.34902 6.46255 8.34902 7.9828V8.64748C8.07227 8.7873 7.8104 8.93461 7.56521 9.08961C7.38884 9.20111 7.3074 9.41579 7.36546 9.61623C7.42352 9.81667 7.60702 9.95461 7.81571 9.95461H8.34902V12.2023C7.80959 12.4595 7.4159 12.9689 7.35577 13.5685C7.30715 14.0542 7.46602 14.5392 7.79165 14.899C8.11752 15.2592 8.58283 15.4657 9.06821 15.4657H9.41808C9.60646 16.8157 10.1827 18.0431 11.0298 19.032L7.41296 22.3326C7.0834 22.6333 6.90959 23.0613 6.93621 23.5067C6.96196 23.9369 7.17171 24.3283 7.51315 24.5883L6.69384 24.8292C5.01347 25.3235 3.83984 26.8919 3.83984 28.6434V32.0312C3.83984 32.2901 4.04972 32.4999 4.30859 32.4999C4.56747 32.4999 4.77734 32.2901 4.77734 32.0312V28.6434C4.77734 27.3049 5.67422 26.1063 6.95834 25.7286L8.48059 25.2809L9.0154 25.6629L8.25471 27.126C7.9639 27.6853 7.95896 28.3556 8.2414 28.9191L9.90658 32.2412C9.98883 32.4052 10.1542 32.5 10.326 32.5C10.3966 32.5 10.4683 32.484 10.5357 32.4502C10.7671 32.3342 10.8607 32.0526 10.7447 31.8211L9.07952 28.4991C8.93133 28.2035 8.93396 27.8519 9.08646 27.5585L10.0349 25.7343C10.1426 25.5272 10.0815 25.2724 9.89146 25.1367L8.09434 23.853C7.96271 23.7589 7.88165 23.6123 7.87196 23.4508C7.86227 23.2893 7.92534 23.1341 8.04484 23.0251L11.6861 19.7022C11.8985 19.892 12.1225 20.0691 12.357 20.2321V32.0312C12.357 32.2901 12.5668 32.4999 12.8257 32.4999C13.0846 32.4999 13.2944 32.2901 13.2944 32.0312V27.7913C14.2404 28.2511 15.2763 28.4922 16.3328 28.4922C17.3893 28.4922 18.4251 28.2511 19.3711 27.7913V32.0312C19.3711 32.2901 19.5809 32.4999 19.8398 32.4999C20.0987 32.4999 20.3086 32.2901 20.3086 32.0312V20.2315C20.5429 20.0685 20.7667 19.8915 20.9789 19.7017L24.6206 23.025C24.7401 23.1341 24.8031 23.2893 24.7935 23.4508C24.7839 23.6123 24.7028 23.7588 24.5712 23.8529L22.774 25.1367C22.584 25.2724 22.5229 25.5273 22.6306 25.7344L23.5799 27.5602C23.732 27.8529 23.7349 28.2038 23.5877 28.4989L21.9304 31.822C21.8148 32.0537 21.9089 32.3351 22.1406 32.4507C22.2078 32.4842 22.2791 32.5001 22.3494 32.5001C22.5216 32.5001 22.6872 32.4049 22.7692 32.2404L24.4266 28.9174C24.7073 28.3548 24.7017 27.6858 24.4116 27.1278L23.6501 25.6631L24.1849 25.281L25.7071 25.7288C26.9912 26.1064 27.8881 27.3051 27.8881 28.6436V32.0312C27.8881 32.2901 28.098 32.4999 28.3569 32.4999C28.6157 32.4999 28.8256 32.2901 28.8256 32.0312V28.6434C28.8257 26.8919 27.6522 25.3235 25.9717 24.8293ZM23.3791 12.0232H22.8459C22.5518 12.0232 22.3126 11.7839 22.3126 11.4899V9.95467H23.3791V12.0232ZM15.2985 5.9788C15.2985 5.40849 15.7624 4.94455 16.3328 4.94455C16.9031 4.94455 17.367 5.40849 17.367 5.9788C17.367 6.54911 16.9031 7.01305 16.3328 7.01305C15.7624 7.01305 15.2985 6.54911 15.2985 5.9788ZM18.2478 6.44755H23.1618C23.3044 6.94261 23.3792 7.45886 23.3792 7.9828V8.22442C21.8417 7.60942 19.9824 7.21099 17.974 7.07011C18.0991 6.88274 18.1927 6.67261 18.2478 6.44755ZM10.672 4.31655C10.7475 4.23093 10.7892 4.12068 10.7893 4.00643L10.7894 2.97268C10.7895 2.67868 11.0286 2.4395 11.3226 2.4395H11.8238C11.8416 2.4395 11.856 2.45393 11.856 2.47175V3.47374C11.856 3.73262 12.0659 3.94249 12.3248 3.94249C12.5836 3.94249 12.7935 3.73262 12.7935 3.47374V2.82575C13.4408 2.56962 14.1248 2.4395 14.8298 2.4395H14.8621V2.97274C14.8621 3.23162 15.0719 3.44149 15.3308 3.44149C15.5897 3.44149 15.7996 3.23162 15.7996 2.97274V1.46975C15.7996 1.45194 15.814 1.4375 15.8318 1.4375H16.8338C16.8516 1.4375 16.8661 1.45194 16.8661 1.46975V2.97274C16.8661 3.23162 17.0759 3.44149 17.3348 3.44149C17.5937 3.44149 17.8036 3.23162 17.8036 2.97274V2.4395H17.8358C18.5417 2.4395 19.2253 2.56912 19.8721 2.82525V3.47381C19.8721 3.73268 20.082 3.94256 20.3409 3.94256C20.5997 3.94256 20.8096 3.73268 20.8096 3.47381V2.47175C20.8096 2.45393 20.8241 2.4395 20.8419 2.4395H21.343C21.637 2.4395 21.8762 2.67868 21.8762 2.97268L21.8764 4.00649C21.8764 4.12068 21.9181 4.23093 21.9937 4.31655C22.3149 4.68049 22.5832 5.08237 22.7965 5.51005H18.2478C18.0369 4.64843 17.2585 4.00706 16.3328 4.00706C15.4071 4.00706 14.6288 4.64843 14.4178 5.51005H9.86914C10.0823 5.08237 10.3507 4.68055 10.672 4.31655ZM9.28646 7.98286C9.28646 7.45886 9.36121 6.94261 9.50383 6.44761H14.4178C14.4731 6.6733 14.567 6.88386 14.6926 7.07174C14.0319 7.11861 13.3823 7.19286 12.7501 7.29617C12.4946 7.33792 12.3214 7.57892 12.3631 7.83442C12.4049 8.08986 12.6456 8.26323 12.9014 8.22142C14.0006 8.04173 15.1551 7.95061 16.3328 7.95061C18.7191 7.95061 21.0129 8.33667 22.8214 9.01717H9.84002C10.19 8.88523 10.5604 8.76355 10.95 8.65261C11.199 8.58173 11.3434 8.32242 11.2725 8.07342C11.2016 7.82442 10.9422 7.67999 10.6933 7.75092C10.1956 7.89261 9.72639 8.05167 9.2864 8.22686V7.98286H9.28646ZM10.353 9.95461V11.4899C10.353 11.7839 10.1137 12.0231 9.81971 12.0231H9.28646V9.95454H10.353V9.95461ZM9.81971 14.0272C9.56083 14.0272 9.35096 14.2371 9.35096 14.496V14.5282H9.06821C8.84715 14.5282 8.63527 14.4342 8.48677 14.27C8.33634 14.1038 8.26596 13.8878 8.28859 13.662C8.32796 13.2687 8.70177 12.9607 9.13965 12.9607H9.81971C10.6307 12.9607 11.2905 12.3009 11.2905 11.49V9.95473H21.3751V11.49C21.3751 12.301 22.0349 12.9607 22.8458 12.9607H23.5973C23.8184 12.9607 24.0302 13.0548 24.1787 13.2188C24.3292 13.3851 24.3996 13.601 24.3769 13.8269C24.3376 14.2202 23.9637 14.5282 23.5259 14.5282H23.3143V14.5008C23.3143 14.242 23.1046 14.0321 22.8457 14.032C22.8457 14.032 22.8456 14.032 22.8456 14.032C22.5868 14.032 22.377 14.2417 22.3768 14.5005C22.3744 17.8308 19.663 20.5403 16.3327 20.5403C12.9998 20.5403 10.2884 17.8288 10.2884 14.496C10.2885 14.237 10.0786 14.0272 9.81971 14.0272ZM19.3711 24.1686C18.6018 25.0483 17.504 25.5506 16.3328 25.5506C16.0739 25.5506 15.8641 25.7605 15.8641 26.0194C15.8641 26.2783 16.0739 26.4881 16.3328 26.4881C17.4478 26.4881 18.509 26.1193 19.3711 25.4522V26.7296C18.4465 27.2698 17.4016 27.5546 16.3328 27.5546C15.2641 27.5546 14.2191 27.2698 13.2945 26.7296V25.4503C13.5308 25.6329 13.7828 25.7954 14.0514 25.9344C14.1203 25.9701 14.1939 25.987 14.2664 25.987C14.4361 25.987 14.5998 25.8946 14.6831 25.7336C14.8021 25.5037 14.7122 25.2209 14.4823 25.1019C14.0288 24.8672 13.6303 24.5534 13.2945 24.1692V20.7811C14.2136 21.2271 15.2444 21.4777 16.3328 21.4777C17.4211 21.4777 18.4519 21.227 19.3711 20.7806V24.1686Z" fill="#0B8468"/>
<path d="M13.3271 12.5234C13.0683 12.5234 12.8584 12.7333 12.8584 12.9922V13.4932C12.8584 13.7521 13.0683 13.9619 13.3271 13.9619C13.586 13.9619 13.7959 13.7521 13.7959 13.4932V12.9922C13.7959 12.7333 13.586 12.5234 13.3271 12.5234Z" fill="#0B8468"/>
<path d="M19.3389 12.5234C19.08 12.5234 18.8701 12.7333 18.8701 12.9922V13.4932C18.8701 13.7521 19.08 13.9619 19.3389 13.9619C19.5977 13.9619 19.8076 13.7521 19.8076 13.4932V12.9922C19.8076 12.7333 19.5978 12.5234 19.3389 12.5234Z" fill="#0B8468"/>
<path d="M16.3331 17.4697C17.0767 17.4697 17.7616 17.2319 18.1653 16.8337C18.3496 16.6518 18.3516 16.355 18.1698 16.1708C17.9879 15.9865 17.6911 15.9845 17.5069 16.1663C17.3358 16.3352 16.9258 16.5323 16.3331 16.5323C15.7404 16.5323 15.3304 16.3352 15.1593 16.1663C14.975 15.9845 14.6781 15.9865 14.4964 16.1708C14.3146 16.3551 14.3166 16.6518 14.5008 16.8337C14.9045 17.2319 15.5895 17.4697 16.3331 17.4697Z" fill="#0B8468"/>
<path d="M12.8262 11.959H13.8282C14.087 11.959 14.2969 11.7491 14.2969 11.4902C14.2969 11.2314 14.087 11.0215 13.8282 11.0215H12.8262C12.5673 11.0215 12.3574 11.2314 12.3574 11.4902C12.3574 11.7491 12.5673 11.959 12.8262 11.959Z" fill="#0B8468"/>
<path d="M18.8379 11.959H19.8399C20.0988 11.959 20.3086 11.7491 20.3086 11.4902C20.3086 11.2314 20.0988 11.0215 19.8399 11.0215H18.8379C18.579 11.0215 18.3691 11.2314 18.3691 11.4902C18.3691 11.7491 18.579 11.959 18.8379 11.959Z" fill="#0B8468"/>
</g>
<defs>
<clipPath id="clip0_7001_6501">
<rect width="32" height="32" fill="white" transform="translate(0.333008 0.5)"/>
</clipPath>
</defs>
</svg>
