<svg width="132" height="37" viewBox="0 0 132 37" fill="none" xmlns="http://www.w3.org/2000/svg">
<path d="M0.46875 2.64062V1.375H14.5312V2.64062H10.7812V18.8125C10.7812 20.5938 10.9219 22.125 11.2031 23.4062C11.9531 26.8438 13.9062 28.5625 17.0625 28.5625C22.0625 28.5312 24.5781 25.2812 24.6094 18.8125V2.64062H20.8594V1.375H30.0938V2.64062H26.3438V18.5312C26.3438 20.75 26.0938 22.6406 25.5938 24.2031C24.2812 28.0469 21.1094 29.9688 16.0781 29.9688C8.23438 29.9375 4.28125 26.3438 4.21875 19.1875V2.64062H0.46875ZM47.0625 0.90625C50.5938 0.90625 53.6719 1.85938 56.2969 3.76562C59.9531 6.45312 61.7812 10.375 61.7812 15.5312C61.7812 17.4688 61.4531 19.2969 60.7969 21.0156C59.4531 24.5156 57.0156 27.0469 53.4844 28.6094C53.7344 28.9219 53.9844 29.2031 54.2344 29.4531C56.2344 31.6719 58 32.7812 59.5312 32.7812C59.7188 32.7812 59.9219 32.7656 60.1406 32.7344C61.2031 32.6406 62.4375 31.8906 63.8438 30.4844L64.9688 31.1406C63.375 34.9844 61.25 36.9375 58.5938 37C56.9062 36.9688 55.25 36.0938 53.625 34.375C53.0625 33.75 51.9219 32.1719 50.2031 29.6406C49.2031 29.8594 48.1094 29.9688 46.9219 29.9688C43.2656 29.9688 40.0781 28.9219 37.3594 26.8281C33.8281 24.0781 32.0625 20.25 32.0625 15.3438C32.0625 11.0625 33.5469 7.5625 36.5156 4.84375C39.3906 2.21875 42.9062 0.90625 47.0625 0.90625ZM46.2656 23.5938C47.9531 23.5938 49.8281 24.6875 51.8906 26.875C53.6719 25.0938 54.5625 21.2344 54.5625 15.2969C54.5625 12.2969 54.2969 9.84375 53.7656 7.9375C52.7031 4.15625 50.4219 2.26562 46.9219 2.26562C45.7031 2.26562 44.6406 2.48437 43.7344 2.92188C40.7656 4.35937 39.2812 8.5625 39.2812 15.5312C39.2812 20.9688 40.0781 24.6406 41.6719 26.5469C43.0781 24.6094 44.6094 23.625 46.2656 23.5938ZM47.0625 28.6094C47.9062 28.6094 48.6562 28.5156 49.3125 28.3281C48.0938 26.6719 46.9219 25.8281 45.7969 25.7969C44.7656 25.8281 43.7344 26.3906 42.7031 27.4844C43.7656 28.2031 45.2188 28.5781 47.0625 28.6094ZM93.8906 29.5H81.3281V28.2344H84.6562L81.1406 19.2344H71.8125L68.4375 28.2344H71.0625C71.25 28.2344 71.4219 28.25 71.5781 28.2812C71.9844 28.3438 72.1875 28.75 72.1875 29.5H63.5625V28.2344H66.5625L76.8281 1.375H80.2969L91.3594 28.2344H92.7656C92.9531 28.2344 93.125 28.25 93.2812 28.2812C93.6875 28.3438 93.8906 28.75 93.8906 29.5ZM80.5781 17.8281L76.4062 7.04688L72.375 17.8281H80.5781ZM131.062 1.375V2.64062H127.312V28.2344H129.797C130.453 28.2969 130.875 28.7188 131.062 29.5H117.234V28.2344H120.984V5.96875L110.906 29.9688H110.062L100.078 10.5625V28.2344H102.562C103.219 28.2969 103.641 28.7188 103.828 29.5H94.3594V28.2344H98.1094V2.64062H94.3594V1.375H102.75L112.594 21.5312L120.984 1.375H131.062Z" fill="#1F1F1F"/>
</svg>
