<svg width="33" height="33" viewBox="0 0 33 33" fill="none" xmlns="http://www.w3.org/2000/svg">
<g clip-path="url(#clip0_7001_2211)">
<path d="M30.7852 28.9604H30.6058V24.5337C30.9994 24.3246 31.2684 23.9108 31.2684 23.4349C31.2684 22.959 30.9994 22.5452 30.6058 22.3361V15.6837C30.9994 15.4746 31.2684 15.0607 31.2684 14.5849C31.2684 14.109 30.9994 13.6951 30.6058 13.486V11.8287C30.6058 10.1007 29.2 8.6948 27.4719 8.6948H26.1058V7.54061H26.4183C26.6599 7.54061 26.8558 7.34473 26.8558 7.10311C26.8558 6.86148 26.6599 6.66561 26.4183 6.66561H26.1058V5.14373C26.1058 4.70342 25.7476 4.34517 25.3073 4.34517H25.0558V3.45617C25.0558 1.97155 23.8479 0.763672 22.3633 0.763672H9.72438C8.98363 0.763672 8.34263 1.02948 7.8192 1.55367C7.29538 2.07836 7.03051 2.7198 7.03195 3.46036L7.0337 4.36686C4.85282 4.57873 3.12388 6.3543 2.98363 8.55511C2.5957 8.76498 2.33151 9.17555 2.33151 9.64673C2.33151 10.1137 2.59113 10.5209 2.97338 10.7324V17.8235C2.59113 18.035 2.33151 18.4422 2.33151 18.9092C2.33151 19.3762 2.59113 19.7834 2.97338 19.9949V27.0125C2.44913 27.1709 2.06613 27.658 2.06613 28.2332V29.0332C1.39795 29.2399 0.911133 29.8634 0.911133 30.5985V31.7993C0.911133 32.0409 1.10701 32.2368 1.34863 32.2368H31.9859C32.2275 32.2368 32.4234 32.0409 32.4234 31.7993V30.5985C32.4234 29.6952 31.6885 28.9604 30.7852 28.9604V28.9604ZM28.8558 28.9604V24.6786H29.7308V28.9604H28.8558ZM17.3286 28.9604V28.0214C19.3729 27.5536 21.0067 26.0269 21.6107 24.0134C21.9407 23.9079 22.1936 23.6266 22.2518 23.2674C22.3018 22.9585 22.3272 22.6424 22.3272 22.328C22.3272 22.0135 22.3018 21.6974 22.2518 21.3884C22.1935 21.0293 21.9407 20.7481 21.6109 20.6425C21.1489 19.1116 20.0584 17.8175 18.6252 17.0999V16.3099C18.6252 15.8743 18.2708 15.5199 17.8353 15.5199H17.3286V11.8287C17.3286 11.5528 17.5617 11.3197 17.8375 11.3197H23.1308V12.4825H22.8182C22.5766 12.4825 22.3807 12.6784 22.3807 12.92C22.3807 13.1616 22.5766 13.3575 22.8182 13.3575H23.1308V14.8075H22.8182C22.5766 14.8075 22.3807 15.0034 22.3807 15.245C22.3807 15.4866 22.5766 15.6825 22.8182 15.6825H23.1308V17.1324H22.8182C22.5766 17.1324 22.3807 17.3283 22.3807 17.5699C22.3807 17.8115 22.5766 18.0074 22.8182 18.0074H23.1308V19.4574H22.8182C22.5766 19.4574 22.3807 19.6532 22.3807 19.8949C22.3807 20.1365 22.5766 20.3324 22.8182 20.3324H23.1308V21.7824H22.8182C22.5766 21.7824 22.3807 21.9782 22.3807 22.2199C22.3807 22.4615 22.5766 22.6574 22.8182 22.6574H23.1308V24.1073H22.8182C22.5766 24.1073 22.3807 24.3032 22.3807 24.5448C22.3807 24.7864 22.5766 24.9823 22.8182 24.9823H23.1308V26.4323H22.8182C22.5766 26.4323 22.3807 26.6282 22.3807 26.8698C22.3807 27.1114 22.5766 27.3073 22.8182 27.3073H23.1308V28.9603H17.3286V28.9604ZM11.9706 27.0125V26.5478C12.7189 27.2653 13.6574 27.782 14.7036 28.0215V28.9605H12.8778V28.2333C12.8778 27.658 12.4948 27.1709 11.9705 27.0125L11.9706 27.0125ZM3.57201 9.28142H11.3721C11.5736 9.28142 11.7375 9.4453 11.7375 9.6468C11.7375 9.8483 11.5736 10.0122 11.3721 10.0122H3.57201C3.37051 10.0122 3.20657 9.8483 3.20657 9.6468C3.20657 9.4453 3.37051 9.28142 3.57201 9.28142ZM13.9398 17.8146H18.0926C19.2853 18.3646 20.2176 19.3772 20.6731 20.5967H11.3593C11.8148 19.3773 12.7471 18.3646 13.9398 17.8146ZM17.7503 16.3949V16.9396H14.2822V16.3949H17.7503ZM16.0162 25.7894C15.2925 25.7894 14.7038 26.3782 14.7038 27.1019V27.1199C13.1583 26.6997 11.9136 25.56 11.3584 24.0591H20.674C20.1188 25.56 18.8741 26.6997 17.3287 27.1199V27.1019C17.3287 26.3782 16.7399 25.7894 16.0162 25.7894ZM21.3216 21.4717C21.3565 21.4717 21.3826 21.4939 21.3881 21.5283C21.4308 21.7911 21.4523 22.0602 21.4523 22.3279C21.4523 22.5957 21.4307 22.8647 21.3881 23.1275C21.3826 23.1619 21.3564 23.1841 21.3216 23.1841H10.7108C10.6759 23.1841 10.6498 23.1619 10.6442 23.1274C10.6016 22.865 10.5801 22.596 10.5801 22.3279C10.5801 22.0599 10.6017 21.7908 10.6442 21.5284C10.6498 21.4939 10.676 21.4717 10.7108 21.4717H21.3215H21.3216ZM11.0956 10.8871V17.6689H3.84838V10.8871H11.0956H11.0956ZM3.57201 18.5439H11.3721C11.4301 18.5439 11.4856 18.5582 11.5354 18.5834C11.3531 18.8014 11.1868 19.0325 11.0376 19.2746H3.57201C3.37051 19.2746 3.20657 19.1107 3.20657 18.9092C3.20657 18.7077 3.37051 18.5439 3.57201 18.5439ZM10.5948 20.1496C10.5297 20.3108 10.4719 20.4752 10.4214 20.6425C10.0916 20.748 9.83882 21.0292 9.78057 21.3883C9.73051 21.6969 9.70513 22.013 9.70513 22.3279C9.70513 22.6428 9.73051 22.9589 9.78051 23.2674C9.8387 23.6266 10.0916 23.9079 10.4216 24.0134C10.5797 24.5402 10.8076 25.034 11.0956 25.484V26.9577H3.84838V20.1495H10.5948L10.5948 20.1496ZM15.5788 27.1019C15.5788 26.8607 15.775 26.6644 16.0162 26.6644C16.2574 26.6644 16.4537 26.8607 16.4537 27.1019V28.9604H15.5788V27.1019ZM24.0058 11.3197H25.2308V28.9604H24.0058V11.3198V11.3197ZM26.1058 27.3074H26.4184C26.66 27.3074 26.8559 27.1115 26.8559 26.8699C26.8559 26.6282 26.66 26.4324 26.4184 26.4324H26.1058V24.9824H26.4184C26.66 24.9824 26.8559 24.7865 26.8559 24.5449C26.8559 24.3032 26.66 24.1074 26.4184 24.1074H26.1058V22.6574H26.4184C26.66 22.6574 26.8559 22.4615 26.8559 22.2199C26.8559 21.9783 26.66 21.7824 26.4184 21.7824H26.1058V20.3324H26.4184C26.66 20.3324 26.8559 20.1365 26.8559 19.8949C26.8559 19.6533 26.66 19.4574 26.4184 19.4574H26.1058V18.0075H26.4184C26.66 18.0075 26.8559 17.8116 26.8559 17.57C26.8559 17.3284 26.66 17.1325 26.4184 17.1325H26.1058V15.6825H26.4184C26.66 15.6825 26.8559 15.4867 26.8559 15.245C26.8559 15.0034 26.66 14.8075 26.4184 14.8075H26.1058V13.3575H26.4184C26.66 13.3575 26.8559 13.1617 26.8559 12.92C26.8559 12.6784 26.66 12.4825 26.4184 12.4825H26.1058V11.3198H27.472C27.7478 11.3198 27.9809 11.5529 27.9809 11.8287V13.4861C27.5873 13.6952 27.3184 14.109 27.3184 14.5849C27.3184 15.0608 27.5873 15.4746 27.9809 15.6837V22.3362C27.5873 22.5452 27.3184 22.959 27.3184 23.4349C27.3184 23.9108 27.5873 24.3246 27.9809 24.5337V28.9605H26.1058V27.3075V27.3074ZM30.0246 14.216C30.228 14.216 30.3934 14.3814 30.3934 14.5848C30.3934 14.7882 30.228 14.9535 30.0246 14.9535H28.5621C28.3588 14.9535 28.1934 14.7882 28.1934 14.5848C28.1934 14.3814 28.3588 14.216 28.5621 14.216H30.0246ZM30.0246 23.8035H28.5621C28.3588 23.8035 28.1934 23.6382 28.1934 23.4348C28.1934 23.2314 28.3588 23.0661 28.5621 23.0661H30.0246C30.228 23.0661 30.3934 23.2315 30.3934 23.4349C30.3934 23.6382 30.228 23.8035 30.0246 23.8035ZM28.8559 22.191V15.8285H29.7309V22.191H28.8559ZM29.7309 11.8286V13.341H28.8559V11.8286C28.8559 11.0655 28.2351 10.4447 27.472 10.4447H17.8376C17.0745 10.4447 16.4537 11.0655 16.4537 11.8286V15.5199H15.5788V11.8286C15.5788 10.583 16.5921 9.56973 17.8376 9.56973H27.472C28.7176 9.56973 29.7309 10.583 29.7309 11.8286ZM25.2308 8.69473H24.0058V5.22011H25.2308V8.69473ZM8.43832 2.17205C8.79663 1.81323 9.21732 1.6388 9.72438 1.6388H22.3633C23.3654 1.6388 24.1808 2.45411 24.1808 3.4563V4.3453H23.9294C23.4891 4.3453 23.1308 4.70355 23.1308 5.14386V6.66573H22.8183C22.5766 6.66573 22.3808 6.86161 22.3808 7.10323C22.3808 7.34486 22.5766 7.54073 22.8183 7.54073H23.1308V8.69492H17.8376C16.1096 8.69492 14.7038 10.1007 14.7038 11.8288V15.52H14.1971C13.7616 15.52 13.4072 15.8744 13.4072 16.31V17.1C12.9518 17.3281 12.5309 17.6142 12.1539 17.9479C12.0965 17.9011 12.0354 17.8592 11.9707 17.8235V10.7326C12.3529 10.521 12.6126 10.1139 12.6126 9.64692C12.6126 9.17573 12.3484 8.76517 11.9604 8.5553C11.8202 6.35392 10.0904 4.57811 7.90882 4.36698L7.90707 3.45892C7.90607 2.95223 8.07988 2.5313 8.43845 2.17223L8.43832 2.17205ZM7.47201 5.22023C9.32188 5.22023 10.8514 6.61398 11.0683 8.40642H3.87576C4.09257 6.61398 5.62213 5.22023 7.47201 5.22023ZM3.34163 27.8328H11.6024C11.8233 27.8328 12.0029 28.0124 12.0029 28.2332V28.9604H2.9412V28.2332C2.9412 28.0124 3.12082 27.8328 3.34163 27.8328ZM31.5484 31.3619H1.78613V30.5986C1.78613 30.1778 2.12851 29.8354 2.54932 29.8354H30.7852C31.206 29.8354 31.5484 30.1778 31.5484 30.5986V31.3619ZM6.21951 15.8849C6.49338 16.26 6.9597 16.4877 7.46676 16.4937H7.47207C7.47207 16.4937 7.47563 16.4937 7.47738 16.4937C7.98445 16.4876 8.4507 16.26 8.72451 15.8849C8.92645 15.6084 9.12063 15.1268 8.89888 14.4033C8.68463 13.7042 8.2297 12.9655 7.98532 12.5687C7.92844 12.4764 7.87932 12.3966 7.85551 12.3533C7.7787 12.2134 7.6317 12.1265 7.47213 12.1265C7.31257 12.1265 7.16563 12.2134 7.08876 12.3532C7.06495 12.3965 7.01588 12.4762 6.95907 12.5684C6.71463 12.9652 6.25957 13.704 6.04526 14.4032C5.82351 15.1267 6.01769 15.6083 6.21957 15.8849L6.21951 15.8849ZM6.88176 14.6597C7.01082 14.2386 7.25894 13.7747 7.47207 13.411C7.68513 13.7746 7.93326 14.2385 8.06232 14.6597C8.12613 14.868 8.17032 15.1602 8.01782 15.369C7.90651 15.5215 7.70276 15.6147 7.47207 15.6188C7.24132 15.6147 7.03757 15.5215 6.92626 15.369C6.77382 15.1602 6.81795 14.868 6.88176 14.6597Z" fill="#0B8468"/>
</g>
<defs>
<clipPath id="clip0_7001_2211">
<rect width="32" height="32" fill="white" transform="translate(0.666992 0.5)"/>
</clipPath>
</defs>
</svg>
