<svg width="106" height="107" viewBox="0 0 106 107" fill="none" xmlns="http://www.w3.org/2000/svg">
<rect x="1.26172" y="1.62109" width="103.654" height="103.654" rx="51.8269" fill="#FBFBFB"/>
<rect x="1.26172" y="1.62109" width="103.654" height="103.654" rx="51.8269" stroke="#B3D9D0" stroke-width="2"/>
<path d="M59.625 59.9844L62.8934 63.2528" stroke="#0B8468" stroke-width="3.3" stroke-linecap="round" stroke-linejoin="round"/>
<path d="M63.8386 68.7541C62.5798 67.4953 62.5798 65.4546 63.8386 64.196C65.0971 62.9373 67.1379 62.9373 68.3967 64.196L72.8449 68.6443C74.1037 69.903 74.1037 71.9438 72.8449 73.2024C71.5864 74.4611 69.5456 74.4611 68.2869 73.2024L63.8386 68.7541Z" stroke="#0B8468" stroke-width="3.3" stroke-linecap="round" stroke-linejoin="round"/>
<path d="M62.8955 47.9985C62.8955 39.5748 56.0667 32.7461 47.643 32.7461C39.2194 32.7461 32.3906 39.5748 32.3906 47.9985C32.3906 56.4222 39.2194 63.2509 47.643 63.2509C56.0667 63.2509 62.8955 56.4222 62.8955 47.9985Z" stroke="#0B8468" stroke-width="3.3" stroke-linecap="round" stroke-linejoin="round"/>
</svg>
