<svg width="32" height="33" viewBox="0 0 32 33" fill="none" xmlns="http://www.w3.org/2000/svg">
<g clip-path="url(#clip0_7001_4036)">
<path d="M30.0061 22.5267C30.9115 21.6212 31.2143 20.3535 30.8159 19.1354C30.7619 18.9702 30.626 18.8451 30.457 18.8046C30.2878 18.7642 30.11 18.8144 29.9871 18.9373L28.1798 20.7446L27.3125 20.5121L27.08 19.6447L28.8873 17.8374C29.0101 17.7145 29.0604 17.5367 29.02 17.3676C28.9796 17.1986 28.8543 17.0626 28.6891 17.0086C27.4712 16.6103 26.2033 16.9129 25.2977 17.8185C24.7996 18.3166 24.4841 18.9609 24.373 19.6395C22.7468 18.1077 20.7542 17.0424 18.5998 16.5359C20.4585 15.6352 21.844 13.8918 22.2344 11.7697H22.328C23.0933 11.7697 23.7159 11.1471 23.7159 10.3818C23.7159 9.73394 23.2697 9.18837 22.6685 9.03619C22.6686 9.02037 22.6686 9.00463 22.6686 8.98888C22.6686 6.07425 20.8781 3.50106 18.1782 2.47775C18.1377 2.23837 18.0382 2.0185 17.8821 1.82819C17.3933 1.232 16.4458 1.04938 15.737 1.00112C15.7143 0.999625 15.6916 0.999625 15.669 1.00112C14.9601 1.04938 14.0126 1.23206 13.5238 1.82819C13.3676 2.01856 13.2682 2.23837 13.2277 2.47775C10.5279 3.50106 8.73727 6.07431 8.73727 8.98888C8.73727 9.00463 8.73734 9.02037 8.73746 9.03619C8.13621 9.18837 7.69002 9.73394 7.69002 10.3818C7.69002 11.1471 8.31265 11.7697 9.07796 11.7697H9.17152C9.56171 13.8905 10.9458 15.6331 12.8027 16.5342C11.5486 16.8286 10.3453 17.3142 9.23002 17.9801L9.18609 17.8659C9.11184 17.6729 8.92634 17.5456 8.71946 17.5456H7.00184C6.79496 17.5456 6.60952 17.6729 6.53521 17.8659L6.2224 18.6786C5.78996 18.8024 5.37384 18.9749 4.97996 19.1937L4.18359 18.84C3.99452 18.7561 3.7734 18.7972 3.62709 18.9434L2.41246 20.158C2.26621 20.3043 2.22515 20.5255 2.30909 20.7145L2.66277 21.5108C2.4439 21.9047 2.27134 22.3209 2.14759 22.7534L1.33502 23.0661C1.14202 23.1404 1.01465 23.3259 1.01465 23.5327V25.2504C1.01465 25.4572 1.14202 25.6427 1.33502 25.717L2.14746 26.0297C2.27127 26.4624 2.44384 26.8787 2.66265 27.2726L2.30909 28.0687C2.22515 28.2577 2.26621 28.4789 2.41252 28.6252L3.62715 29.8397C3.77346 29.986 3.99459 30.027 4.18359 29.9431L4.97996 29.5894C5.37384 29.8082 5.78996 29.9807 6.2224 30.1045L6.53521 30.9172C6.60946 31.1102 6.79496 31.2376 7.00184 31.2376H8.71946C8.92634 31.2376 9.11177 31.1102 9.18609 30.9172L9.49884 30.1047C9.93152 29.9809 10.3478 29.8084 10.7416 29.5896L11.5378 29.9431C11.7268 30.0271 11.948 29.986 12.0943 29.8397L13.3088 28.6251C13.4551 28.4788 13.4961 28.2576 13.4122 28.0686L13.4 28.0411H15.8826C15.7781 28.585 15.8097 29.1569 15.99 29.7079C16.044 29.8731 16.1799 29.9982 16.3489 30.0387C16.5181 30.0791 16.6958 30.0289 16.8188 29.906L18.626 28.0987L19.4935 28.3312L19.726 29.1987L17.9187 31.0059C17.7958 31.1288 17.7455 31.3066 17.7859 31.4757C17.8263 31.6447 17.9516 31.7807 18.1168 31.8347C18.4603 31.9471 18.812 32.0018 19.1599 32.0018C20.0272 32.0018 20.8715 31.6615 21.508 31.0249C22.3011 30.2317 22.6312 29.1129 22.4238 28.0411H27.782C27.9239 28.0411 28.0591 27.9809 28.1539 27.8754C28.2487 27.7699 28.2943 27.629 28.2791 27.4879C28.1286 26.0816 27.7486 24.7307 27.1492 23.4614C28.1782 23.6124 29.2573 23.2754 30.0061 22.5267ZM13.297 3.52956L13.6628 6.34656C13.6984 6.62037 13.9486 6.8135 14.2231 6.778C14.4969 6.74244 14.6901 6.49162 14.6545 6.21775L14.2126 2.81419C14.1878 2.62381 14.2448 2.52612 14.2971 2.46231C14.4926 2.22387 15.0168 2.05231 15.703 2.00125C16.3892 2.05231 16.9134 2.22387 17.109 2.46231C17.1613 2.52612 17.2181 2.62375 17.1935 2.81419L16.7515 6.21775C16.716 6.49162 16.9091 6.74244 17.183 6.778C17.2048 6.78081 17.2265 6.78219 17.248 6.78219C17.4955 6.78219 17.7105 6.5985 17.7432 6.3465L18.109 3.52956C20.2606 4.474 21.6688 6.59706 21.6688 8.98894C21.6688 8.99062 21.6687 8.99231 21.6687 8.994H19.5556V5.82244C19.5556 5.54631 19.3318 5.32244 19.0556 5.32244C18.7795 5.32244 18.5556 5.54631 18.5556 5.82244V8.994H12.8505V5.82244C12.8505 5.54631 12.6266 5.32244 12.3505 5.32244C12.0744 5.32244 11.8505 5.54631 11.8505 5.82244V8.994H9.73752C9.73752 8.99231 9.73746 8.99062 9.73746 8.98894C9.73727 6.59713 11.1453 4.474 13.297 3.52956ZM8.69002 10.3819C8.69002 10.168 8.86402 9.994 9.07796 9.994H9.2569H22.1489H22.3279C22.5418 9.994 22.7158 10.168 22.7158 10.3819C22.7158 10.5957 22.5418 10.7697 22.3279 10.7697H9.59596C9.59577 10.7697 9.59552 10.7697 9.59534 10.7697H9.07796C8.86402 10.7697 8.69002 10.5957 8.69002 10.3819ZM10.1919 11.7697H21.214C20.6555 14.3308 18.3786 16.1993 15.703 16.1993C13.0273 16.1993 10.7505 14.3308 10.1919 11.7697ZM11.6299 28.8899L10.9133 28.5716C10.7628 28.5047 10.5887 28.5164 10.4482 28.6029C10.0018 28.8778 9.5174 29.0786 9.00846 29.1998C8.84809 29.2379 8.71677 29.3527 8.65759 29.5066L8.37615 30.2376H7.34515L7.06365 29.5063C7.00446 29.3525 6.87315 29.2377 6.71284 29.1996C6.20409 29.0784 5.71977 28.8777 5.2734 28.6027C5.1329 28.5161 4.9589 28.5047 4.80827 28.5715L4.0914 28.8899L3.36234 28.1609L3.68059 27.4444C3.74746 27.2937 3.73584 27.1197 3.64934 26.9792C3.3744 26.5328 3.17359 26.0484 3.0524 25.5394C3.01427 25.3791 2.89952 25.2477 2.74565 25.1886L2.01465 24.9071V23.8761L2.74577 23.5947C2.89959 23.5355 3.0144 23.4042 3.05252 23.2439C3.17365 22.7351 3.3744 22.2508 3.6494 21.8043C3.7359 21.6639 3.74752 21.4899 3.68065 21.3392L3.36234 20.6224L4.0914 19.8934L4.80821 20.2118C4.95884 20.2786 5.13284 20.2671 5.27334 20.1805C5.71977 19.9056 6.20409 19.7048 6.71277 19.5837C6.87309 19.5456 7.0044 19.4307 7.06359 19.2769L7.34509 18.5457H8.37609L8.65759 19.2769C8.71677 19.4307 8.84809 19.5456 9.0084 19.5837C9.51715 19.7048 10.0015 19.9056 10.4478 20.1805C10.5883 20.2671 10.7624 20.2785 10.913 20.2118L11.6298 19.8934L12.3588 20.6224L12.0406 21.3389C11.9737 21.4896 11.9853 21.6636 12.0718 21.8039C12.3468 22.2506 12.5476 22.735 12.6688 23.2439C12.7069 23.4042 12.8216 23.5356 12.9755 23.5947L13.7065 23.8761V24.9071L12.9753 25.1886C12.8215 25.2478 12.7066 25.3791 12.6685 25.5394C12.5474 26.0482 12.3466 26.5325 12.0717 26.9789C11.9852 27.1193 11.9736 27.2933 12.0405 27.444L12.3588 28.1608L11.6299 28.8899ZM16.7998 26.3166C16.5805 26.5359 16.3965 26.78 16.2493 27.0411H13.1796C13.3416 26.7166 13.4737 26.3786 13.5735 26.0298L14.3862 25.717C14.5792 25.6427 14.7066 25.4572 14.7066 25.2504V23.5327C14.7066 23.3259 14.5792 23.1404 14.3862 23.0661L13.5738 22.7534C13.45 22.3208 13.2774 21.9046 13.0585 21.5105L13.4121 20.7144C13.4961 20.5254 13.455 20.3042 13.3087 20.1579L12.0941 18.9434C11.9478 18.7971 11.7267 18.7562 11.5376 18.84L10.7413 19.1937C10.4498 19.0319 10.1462 18.8954 9.83277 18.7852C11.61 17.7457 13.6255 17.1992 15.7029 17.1992C19.0476 17.1992 22.218 18.6326 24.4318 21.137L20.093 25.4759C18.9313 25.1338 17.6696 25.4468 16.7998 26.3166ZM21.3104 27.7889C21.666 28.6599 21.466 29.6525 20.8008 30.3177C20.4013 30.7172 19.8853 30.9499 19.3451 30.9936L20.6371 29.7016C20.7635 29.5753 20.8128 29.3912 20.7665 29.2186L20.3846 27.7934C20.3384 27.6209 20.2036 27.4861 20.0311 27.4399L18.606 27.0581C18.5631 27.0466 18.5197 27.0411 18.4766 27.0411C18.3457 27.0411 18.218 27.0925 18.123 27.1875L16.831 28.4796C16.8748 27.9394 17.1075 27.4232 17.5069 27.0237C18.1721 26.3585 19.1645 26.1587 20.0358 26.5142C20.2221 26.5903 20.4359 26.5472 20.5783 26.4049L25.3861 21.5971C25.5285 21.4547 25.5716 21.2409 25.4955 21.0545C25.1453 20.1968 25.3501 19.1806 26.0049 18.5257C26.4125 18.1181 26.925 17.8851 27.4656 17.8449L26.1688 19.1417C26.0425 19.268 25.9931 19.4521 26.0394 19.6247L26.4213 21.0498C26.4675 21.2224 26.6023 21.3571 26.7748 21.4034L28.1998 21.7852C28.3724 21.8316 28.5565 21.7821 28.6829 21.6559L29.9797 20.359C29.9395 20.8996 29.7065 21.4121 29.299 21.8196C28.644 22.4745 27.6278 22.6794 26.7702 22.3291C26.5838 22.2531 26.37 22.2962 26.2276 22.4384L21.4197 27.2463C21.2774 27.3887 21.2343 27.6026 21.3104 27.7889ZM23.0392 27.0411L26.2282 23.8521C26.71 24.8637 27.0401 25.9319 27.2124 27.0411H23.0392ZM7.86065 20.8961C5.93321 20.8961 4.36509 22.4642 4.36509 24.3916C4.36509 26.3191 5.93321 27.8872 7.86065 27.8872C9.78809 27.8872 11.3562 26.3191 11.3562 24.3916C11.3561 22.4642 9.78802 20.8961 7.86065 20.8961ZM7.86065 26.8872C6.48459 26.8872 5.36509 25.7677 5.36509 24.3916C5.36509 23.0155 6.48459 21.896 7.86065 21.896C9.23671 21.896 10.3562 23.0155 10.3562 24.3916C10.3561 25.7677 9.23665 26.8872 7.86065 26.8872Z" fill="#0B8468"/>
</g>
<defs>
<clipPath id="clip0_7001_4036">
<rect width="32" height="32" fill="white" transform="translate(0 0.5)"/>
</clipPath>
</defs>
</svg>
