<svg width="106" height="107" viewBox="0 0 106 107" fill="none" xmlns="http://www.w3.org/2000/svg">
<rect x="1.17188" y="1.57227" width="103.654" height="103.66" rx="51.827" fill="#FBFBFB"/>
<rect x="1.17188" y="1.57227" width="103.654" height="103.66" rx="51.827" stroke="#B3D9D0" stroke-width="2"/>
<path d="M60.082 41.5538C60.082 41.5538 61.2705 42.7423 62.459 45.1193C62.459 45.1193 66.2342 39.1768 69.59 37.9883" stroke="#0B8468" stroke-width="3.56582" stroke-linecap="round" stroke-linejoin="round"/>
<path d="M48.2303 29.6825C42.2915 29.431 37.7032 30.1152 37.7032 30.1152C34.806 30.3223 29.2538 31.9466 29.2539 41.4325C29.2539 50.8377 29.1924 62.4327 29.2539 67.055C29.2539 69.8791 31.0024 76.4665 37.0546 76.8195C44.4111 77.2488 57.662 77.34 63.7417 76.8195C65.3692 76.7277 70.7876 75.4501 71.4733 69.5549C72.1838 63.4477 72.0424 59.2033 72.0424 58.1931" stroke="#0B8468" stroke-width="3.56582" stroke-linecap="round" stroke-linejoin="round"/>
<path d="M76.7733 41.553C76.7733 48.1169 71.4471 53.4381 64.8769 53.4381C58.3066 53.4381 52.9805 48.1169 52.9805 41.553C52.9805 34.9891 58.3066 29.668 64.8769 29.668C71.4471 29.668 76.7733 34.9891 76.7733 41.553Z" stroke="#0B8468" stroke-width="3.56582" stroke-linecap="round"/>
<path d="M41.0664 55.8125H50.5743" stroke="#0B8468" stroke-width="3.56582" stroke-linecap="round"/>
<path d="M41.0664 65.3223H60.0823" stroke="#0B8468" stroke-width="3.56582" stroke-linecap="round"/>
</svg>
