<svg width="106" height="107" viewBox="0 0 106 107" fill="none" xmlns="http://www.w3.org/2000/svg">
<rect x="1.17188" y="1.77148" width="103.654" height="103.654" rx="51.827" fill="#FBFBFB"/>
<rect x="1.17188" y="1.77148" width="103.654" height="103.654" rx="51.827" stroke="#B3D9D0" stroke-width="2"/>
<path d="M33.981 74.9928C33.981 72.367 31.8524 70.2384 29.2266 70.2384M43.4898 74.9928C43.4898 67.1155 37.104 60.7296 29.2266 60.7296M52.9987 74.9928C52.9987 61.864 42.3556 51.2207 29.2266 51.2207" stroke="#0B8468" stroke-width="3.56582" stroke-linecap="round"/>
<path d="M31.6055 44.0898C31.7907 39.6387 32.3877 36.9096 34.3124 34.9884C37.1026 32.2031 41.5934 32.2031 50.5749 32.2031H57.7199C66.7012 32.2031 71.192 32.2031 73.9824 34.9884C76.7725 37.7736 76.7725 42.2564 76.7725 51.2218V53.5992C76.7725 62.5646 76.7725 67.0476 73.9824 69.8327C71.4504 72.36 67.5183 72.5941 60.1014 72.6157" stroke="#0B8468" stroke-width="3.56582" stroke-linecap="round"/>
</svg>
