<svg width="106" height="106" viewBox="0 0 106 106" fill="none" xmlns="http://www.w3.org/2000/svg">
<rect x="1.17188" y="1.05273" width="103.654" height="103.654" rx="51.827" fill="#FBFBFB"/>
<rect x="1.17188" y="1.05273" width="103.654" height="103.654" rx="51.827" stroke="#B3D9D0" stroke-width="2"/>
<path d="M58.3755 32.9095C55.8409 30.3748 54.5736 29.1074 52.9987 29.1074C51.4238 29.1074 50.1565 30.3748 47.6218 32.9095C46.1008 34.4305 44.5935 35.1367 42.425 35.1367C40.5316 35.1367 37.8378 34.7694 36.3582 36.2615C34.8902 37.7418 35.2558 40.4245 35.2558 42.3059C35.2558 44.4744 34.5496 45.9816 33.0286 47.5027C30.4939 50.0374 29.2266 51.3046 29.2266 52.8795C29.2266 54.4542 30.4939 55.7217 33.0286 58.2563C34.7326 59.9603 35.2558 61.0605 35.2558 63.4532C35.2558 65.3466 34.8886 68.0405 36.3808 69.52C37.861 70.988 40.5437 70.6224 42.425 70.6224C44.7343 70.6224 45.8463 71.074 47.4944 72.7221C48.8978 74.1257 50.7791 76.6517 52.9987 76.6517C55.2183 76.6517 57.0996 74.1257 58.5029 72.7221C60.151 71.074 61.2631 70.6224 63.5723 70.6224C65.4536 70.6224 68.1363 70.988 69.6166 69.52M69.6166 69.52C71.1088 68.0405 70.7415 65.3466 70.7415 63.4532C70.7415 61.0605 71.2647 59.9603 72.9687 58.2563C75.5035 55.7217 76.7708 54.4542 76.7708 52.8795C76.7708 51.3046 75.5035 50.0374 72.9687 47.5027M69.6166 69.52H69.6392" stroke="#0B8468" stroke-width="3.56582" stroke-linecap="round" stroke-linejoin="round"/>
<path d="M43.4883 48.8566C43.4883 48.8566 48.837 48.1251 52.9971 57.634C52.9971 57.634 65.023 33.8618 76.7693 29.1074" stroke="#0B8468" stroke-width="3.56582" stroke-linecap="round" stroke-linejoin="round"/>
</svg>
