<svg width="106" height="107" viewBox="0 0 106 107" fill="none" xmlns="http://www.w3.org/2000/svg">
<rect x="1.17188" y="1.79102" width="103.654" height="103.654" rx="51.827" fill="#FBFBFB"/>
<rect x="1.17188" y="1.79102" width="103.654" height="103.654" rx="51.827" stroke="#B3D9D0" stroke-width="2"/>
<path d="M57.1055 33.2788L61.289 41.7148C61.8595 42.8891 63.3807 44.0155 64.6644 44.2312L72.2467 45.5014C77.0958 46.3163 78.2368 49.8632 74.7426 53.3623L68.8478 59.3058C67.8494 60.3123 67.3028 62.2535 67.6116 63.6437L69.2995 71.0012C70.6305 76.8249 67.5641 79.0777 62.4538 76.034L55.3466 71.7921C54.0632 71.0252 51.9477 71.0252 50.6402 71.7921L43.5333 76.034C38.4466 79.0777 35.3566 76.8009 36.6877 71.0012L38.3753 63.6437C38.6843 62.2535 38.1376 60.3123 37.1393 59.3058L31.2444 53.3623C27.7741 49.8632 28.8913 46.3163 33.7402 45.5014L41.3227 44.2312C42.5825 44.0155 44.1037 42.8891 44.6742 41.7148L48.8576 33.2788C51.1395 28.7013 54.8474 28.7013 57.1055 33.2788Z" stroke="#0B8468" stroke-width="3.56582" stroke-linecap="round" stroke-linejoin="round"/>
</svg>
