<svg width="106" height="107" viewBox="0 0 106 107" fill="none" xmlns="http://www.w3.org/2000/svg">
<rect x="1.17188" y="1.83789" width="103.654" height="103.654" rx="51.8269" fill="#FBFBFB"/>
<rect x="1.17188" y="1.83789" width="103.654" height="103.654" rx="51.8269" stroke="#B3D9D0" stroke-width="2"/>
<path d="M29.2266 53.6645C29.2266 56.1651 29.6556 58.5654 30.444 60.7962M30.444 60.7962H50.6215M30.444 60.7962C33.3811 69.1059 41.306 75.0594 50.6215 75.0594C46.9506 75.0594 43.9275 66.739 43.5334 56.0417M55.4085 46.5328H75.5858M75.5858 46.5328C72.6487 38.2231 64.7238 32.2695 55.4085 32.2695C59.2141 32.2695 62.3235 41.2126 62.5292 52.4759M75.5858 46.5328C76.2485 48.4076 76.6572 50.4025 76.7708 52.4759" stroke="#0B8468" stroke-width="3.56582" stroke-linecap="round" stroke-linejoin="round"/>
<path d="M29.2266 37.7311C29.2266 35.12 29.2266 33.8145 29.672 32.802C30.1444 31.7283 30.9586 30.8654 31.9717 30.3647C32.927 29.8926 34.1588 29.8926 36.6223 29.8926H38.7354C43.2179 29.8926 45.4592 29.8926 46.8517 31.3685C48.2443 32.8444 48.2443 35.2198 48.2443 39.9706V45.3409C48.2443 47.4133 48.2443 48.4494 47.6165 48.8055C46.9888 49.1616 46.1753 48.5868 44.5484 47.4373L44.3005 47.2621C43.1115 46.422 42.517 46.002 41.8433 45.7857C41.1695 45.5695 40.455 45.5695 39.026 45.5695H36.6223C34.1588 45.5695 32.927 45.5695 31.9717 45.0974C30.9586 44.5968 30.1444 43.7338 29.672 42.6601C29.2266 41.6476 29.2266 40.3421 29.2266 37.7311Z" stroke="#0B8468" stroke-width="3.56582"/>
<path d="M76.7716 66.2583C76.7716 63.6474 76.7716 62.3418 76.3261 61.3294C75.8538 60.2556 75.0396 59.3927 74.0264 58.892C73.0712 58.4199 71.8394 58.4199 69.3759 58.4199H67.2628C62.7803 58.4199 60.539 58.4199 59.1465 59.8959C57.7539 61.3717 57.7539 63.747 57.7539 68.4979V73.8682C57.7539 75.9407 57.7539 76.9767 58.3817 77.3328C59.0093 77.6889 59.8228 77.1141 61.4498 75.9647L61.6977 75.7895C62.8865 74.9494 63.4811 74.5293 64.1548 74.313C64.8287 74.0969 65.5431 74.0969 66.9723 74.0969H69.3759C71.8394 74.0969 73.0712 74.0969 74.0264 73.6248C75.0396 73.1242 75.8538 72.2612 76.3261 71.1875C76.7716 70.175 76.7716 68.8694 76.7716 66.2583Z" stroke="#0B8468" stroke-width="3.56582"/>
</svg>
