<svg width="48" height="49" viewBox="0 0 48 49" fill="none" xmlns="http://www.w3.org/2000/svg">
<path d="M13.268 24.8793L11.8754 26.1862C11.2825 26.7427 10.8852 27.4362 10.6986 28.1784H1.29365C1.14531 28.1784 1.01758 28.1193 0.921482 28.0062C0.825486 27.8932 0.787693 27.7577 0.811716 27.6112C1.61074 22.7312 5.84678 19.0071 10.9528 19.0071C12.6258 19.0071 14.2053 19.4069 15.6011 20.1161C14.8068 20.6778 14.2221 21.5216 13.9856 22.5311L13.5501 24.3904C13.5014 24.5984 13.4237 24.7331 13.268 24.8793ZM47.5333 27.6112C46.7342 22.7312 42.4982 19.0072 37.3922 19.0072C35.7193 19.0072 34.1398 19.407 32.7439 20.1161C33.5382 20.6779 34.1229 21.5217 34.3594 22.5311L34.7949 24.3904C34.8437 24.5984 34.9214 24.7331 35.0771 24.8792L36.4696 26.1861C37.0625 26.7426 37.4599 27.4361 37.6464 28.1783H47.0514C47.3542 28.1784 47.5823 27.9102 47.5333 27.6112ZM24.1727 12.7602C27.5377 12.7602 30.2656 10.0322 30.2656 6.66719C30.2656 3.30215 27.5377 0.574219 24.1727 0.574219C20.8076 0.574219 18.0797 3.30215 18.0797 6.66719C18.0797 10.0322 20.8076 12.7602 24.1727 12.7602ZM32.2737 40.2388C32.1362 40.3136 32.04 40.4067 31.9453 40.5516L30.9 42.1498C30.0209 43.4939 28.483 44.1801 26.9354 43.9721L28.9481 48.2951C29.0253 48.4609 29.2564 48.4713 29.3483 48.3133L31.0952 45.3072L34.5201 45.9057C34.7005 45.9372 34.8412 45.7536 34.7639 45.5877L32.2737 40.2388ZM27.6393 29.2766L25.7171 29.2803C25.4958 29.2807 25.3076 29.1439 25.2395 28.9333L24.6491 27.1041C24.5009 26.6449 23.8443 26.645 23.6961 27.1041L23.1057 28.9334C23.0377 29.144 22.8494 29.2808 22.6281 29.2803L20.706 29.2766C20.2206 29.2757 20.0183 29.8984 20.4114 30.183L21.9687 31.3099C22.1479 31.4396 22.2198 31.6608 22.1511 31.8712L21.5536 33.6981C21.4029 34.1588 21.9331 34.5439 22.3247 34.2583L23.8776 33.1255C24.0564 32.9951 24.2891 32.9951 24.4678 33.1255L26.0207 34.2583C26.4123 34.5438 26.9424 34.1588 26.7918 33.6981L26.1943 31.8712C26.1255 31.6608 26.1974 31.4396 26.3767 31.3099L27.9339 30.183C28.327 29.8985 28.1246 29.2757 27.6393 29.2766ZM35.4007 27.3253C36.2345 28.1078 36.4446 29.2999 35.9288 30.3204C34.5857 32.9773 34.6856 32.4109 35.039 35.367C35.1747 36.5024 34.5694 37.5507 33.5183 38.0009C30.7815 39.1729 31.2223 38.8032 29.5927 41.2947C28.9668 42.2518 27.8294 42.6657 26.7348 42.335C23.885 41.4737 24.4602 41.4736 21.6103 42.335C20.5158 42.6657 19.3783 42.2518 18.7524 41.2947C17.1229 38.8032 17.5636 39.1729 14.8269 38.0009C13.7757 37.5507 13.1705 36.5024 13.3061 35.367C13.6595 32.4109 13.7595 32.9773 12.4163 30.3204C11.9005 29.2999 12.1106 28.1078 12.9444 27.3253C15.1152 25.2879 14.8276 25.786 15.5066 22.8874C15.7674 21.774 16.6947 20.996 17.8364 20.9324C20.8089 20.7671 20.2685 20.9638 22.6519 19.1798C23.5673 18.4945 24.7777 18.4945 25.6932 19.1798C28.0766 20.9638 27.536 20.7671 30.5086 20.9324C31.6503 20.9959 32.5776 21.774 32.8384 22.8874C33.5175 25.786 33.23 25.288 35.4007 27.3253ZM30.8452 30.5567C30.8452 26.8716 27.8578 23.8842 24.1726 23.8842C20.4873 23.8842 17.5 26.8716 17.5 30.5567C17.5 34.2419 20.4874 37.2294 24.1726 37.2294C27.8577 37.2294 30.8452 34.2419 30.8452 30.5567ZM16.3998 40.5516C16.3051 40.4067 16.2089 40.3137 16.0715 40.2388L13.5812 45.5876C13.5039 45.7535 13.6446 45.937 13.825 45.9056L17.25 45.3071L18.9969 48.3132C19.0888 48.4712 19.32 48.4607 19.3971 48.295L21.4097 43.972C18.6741 44.3397 17.6477 42.4597 16.3998 40.5516ZM37.3923 18.0307C40.262 18.0307 42.5884 15.7042 42.5884 12.8345C42.5884 9.96475 40.262 7.63838 37.3923 7.63838C34.5226 7.63838 32.1962 9.96484 32.1962 12.8345C32.1961 15.7042 34.5225 18.0307 37.3923 18.0307ZM14.8807 18.1149C15.7971 18.4376 16.6644 18.8703 17.4654 19.3983C18.1452 19.3146 19.7348 19.4122 20.187 19.0736L21.7159 17.9293C23.1862 16.8288 25.1593 16.8288 26.6295 17.9293L28.1584 19.0736C28.611 19.4124 30.1998 19.3143 30.8799 19.3983C31.681 18.8704 32.5481 18.4376 33.4646 18.1149C31.2544 15.441 27.9128 13.7367 24.1728 13.7367C20.4324 13.7367 17.0908 15.4409 14.8807 18.1149ZM10.953 18.0307C13.8228 18.0307 16.1491 15.7042 16.1491 12.8345C16.1491 9.96475 13.8227 7.63838 10.953 7.63838C8.0833 7.63838 5.75683 9.96484 5.75683 12.8345C5.75683 15.7042 8.0833 18.0307 10.953 18.0307Z" fill="#0B8468"/>
</svg>
