<svg width="379" height="40" viewBox="0 0 379 40" fill="none" xmlns="http://www.w3.org/2000/svg">
<path d="M31.5625 30.5H30.625C30.0938 30.5 29.6562 30.4062 29.3125 30.2188C28.75 29.9062 28.0938 28.7969 27.3438 26.8906L22.2812 13.7188L16.0938 30.5H15.1562C14.625 30.5 14.1875 30.4062 13.8438 30.2188C13.2812 29.9062 12.625 28.7969 11.875 26.8906L2.875 3.64062H0.53125V2.375H13.2344V3.64062H9.48438L16.8438 24.125L21.4375 11.6094L17.875 2.375H28.75V3.64062L25 3.59375L32.2656 23.7031L38.875 3.64062H35.125V2.375H42.8594V3.64062H40.5156L31.5625 30.5ZM61.0469 30.9688C58.5469 30.8125 56.9688 29.3906 56.3125 26.7031C56.1562 27.1406 55.9531 27.5625 55.7031 27.9688C54.4531 29.9688 52.5 30.9688 49.8438 30.9688C48.9688 30.9688 48.1719 30.8594 47.4531 30.6406C45.0156 29.8594 43.7969 28.0781 43.7969 25.2969C43.8281 21.2031 47.8594 19.0781 55.8906 18.9219V15.875C55.8906 14.9688 55.8281 14.1875 55.7031 13.5312C55.3906 11.75 54.5 10.8594 53.0312 10.8594C52.5938 10.8594 52.2031 10.9375 51.8594 11.0938C51.3281 11.4062 50.8906 12.1875 50.5469 13.4375C50.4219 13.875 50.3281 14.1875 50.2656 14.375C49.7969 15.6875 48.8906 16.3438 47.5469 16.3438C47.2344 16.3438 46.9375 16.2969 46.6562 16.2031C45.5 15.8906 44.9219 15.125 44.9219 13.9062C44.9219 13.375 45.0625 12.875 45.3438 12.4062C46.4375 10.5625 49.1094 9.64062 53.3594 9.64062C54.4531 9.64062 55.4688 9.75 56.4062 9.96875C60.0312 10.875 61.8438 13.2812 61.8438 17.1875V26.9844C61.8438 28.4844 62.1875 29.2656 62.875 29.3281C63.7812 29.2969 64.3281 28.2031 64.5156 26.0469L65.7344 26.0938C65.6406 27.0625 65.5 27.8594 65.3125 28.4844C64.75 30.1406 63.3281 30.9688 61.0469 30.9688ZM52.2812 28.9531C52.5 28.9531 52.75 28.9062 53.0312 28.8125C54.3438 28.3125 55.2969 26.9688 55.8906 24.7812V20.2344C54.4844 20.2969 53.3281 20.4688 52.4219 20.75C50.7344 21.375 49.8906 22.7188 49.8906 24.7812C49.9219 27.5 50.7188 28.8906 52.2812 28.9531ZM78.625 29.2812C78.8125 29.2812 78.9844 29.2969 79.1406 29.3281C79.5469 29.3906 79.75 29.7812 79.75 30.5H66.6719V29.2812C67.5469 29.2812 68.25 29.2188 68.7812 29.0938C69.8125 28.8125 70.3281 28.0312 70.3281 26.75V1.25H66.6719V0.03125H76.2812V29.2812H78.625ZM93.25 29.2812C93.4375 29.2812 93.6094 29.2969 93.7656 29.3281C94.1719 29.3906 94.375 29.7812 94.375 30.5H81.2969V29.2812C82.1719 29.2812 82.875 29.2188 83.4062 29.0938C84.4375 28.8125 84.9531 28.0312 84.9531 26.75V1.25H81.2969V0.03125H90.9062V29.2812H93.25ZM110.172 30.9688C107.359 30.9375 105.125 29.6875 103.469 27.2188L103.094 30.5H95.9219V29.2344C96.3281 29.2344 96.7031 29.2031 97.0469 29.1406C98.0781 28.9219 98.5938 28.1406 98.5938 26.7969V1.29688H95.9219V0.03125H104.547V14.4219C106.172 11.2656 108.594 9.67188 111.812 9.64062C113.406 9.64062 114.859 10.0938 116.172 11C118.703 12.7812 119.969 15.7031 119.969 19.7656C119.969 22.8906 119.156 25.4688 117.531 27.5C115.688 29.8125 113.234 30.9688 110.172 30.9688ZM109.516 11.8906C108.703 11.8906 107.953 12.1562 107.266 12.6875C105.453 14.1562 104.547 17.0312 104.547 21.3125C104.547 22.9688 104.719 24.4219 105.062 25.6719C105.781 28.3594 107.156 29.7031 109.188 29.7031C112.062 29.6719 113.516 26.5781 113.547 20.4219C113.547 14.7969 112.203 11.9531 109.516 11.8906ZM134.359 29.2812C134.547 29.2812 134.719 29.2969 134.875 29.3281C135.281 29.3906 135.484 29.7812 135.484 30.5H122.219V29.2812C122.625 29.2812 122.984 29.25 123.297 29.1875C124.391 29 124.938 28.2188 124.938 26.8438V11.5625H122.219V10.3438H130.422L130.75 14.7031C131.094 13.8281 131.594 13.0156 132.25 12.2656C133.719 10.7344 135.422 9.96875 137.359 9.96875C137.766 9.96875 138.156 10.0156 138.531 10.1094C140.062 10.5156 140.828 11.5 140.828 13.0625C140.828 13.5 140.734 13.9219 140.547 14.3281C140.016 15.5156 139.125 16.1094 137.875 16.1094C137.5 16.1094 137.156 16.0625 136.844 15.9688C136.188 15.7188 135.578 15.0938 135.016 14.0938C134.609 13.375 134.234 13.0156 133.891 13.0156C133.703 13.0156 133.5 13.0625 133.281 13.1562C131.906 13.875 131.109 15.875 130.891 19.1562V29.2812H134.359ZM152.641 29.2812C152.828 29.2812 153 29.2969 153.156 29.3281C153.562 29.3906 153.766 29.7812 153.766 30.5H142.234V29.2812C142.641 29.2812 143 29.25 143.312 29.1875C144.406 29 144.953 28.2188 144.953 26.8438V11.5625H142.234V10.3438H150.906V29.2812H152.641ZM151.328 4.20312C151.328 4.79687 151.172 5.35937 150.859 5.89062C150.203 7.04688 149.188 7.625 147.812 7.625C147.25 7.625 146.703 7.48438 146.172 7.20312C144.953 6.57812 144.344 5.57812 144.344 4.20312C144.344 3.60938 144.484 3.04688 144.766 2.51562C145.453 1.29688 146.469 0.6875 147.812 0.6875C148.406 0.6875 148.969 0.84375 149.5 1.15625C150.719 1.8125 151.328 2.82812 151.328 4.20312ZM172.375 30.5L171.719 26.0938C171.562 26.5 171.375 26.8906 171.156 27.2656C169.75 29.7344 167.594 30.9688 164.688 30.9688C162.938 30.9688 161.344 30.4375 159.906 29.375C157.375 27.5312 156.109 24.6719 156.109 20.7969C156.109 17.6719 156.922 15.0781 158.547 13.0156C160.422 10.7344 162.844 9.59375 165.812 9.59375C168.031 9.59375 169.938 10.2812 171.531 11.6562V1.25H167.266V0.03125H177.484V29.2344H179.641C179.859 29.2344 180.047 29.25 180.203 29.2812C180.578 29.375 180.766 29.7812 180.766 30.5H172.375ZM162.531 20.2344C162.531 21.4219 162.609 22.5 162.766 23.4688C163.297 27.0312 164.656 28.8125 166.844 28.8125C167.5 28.8125 168.109 28.6406 168.672 28.2969C170.641 27.0156 171.625 24.0312 171.625 19.3438C171.625 18.2812 171.562 17.2812 171.438 16.3438C170.906 12.875 169.516 11.1406 167.266 11.1406C166.641 11.1406 166.047 11.2969 165.484 11.6094C163.516 12.7969 162.531 15.6719 162.531 20.2344ZM189.438 17.5625C189.438 19.7188 189.547 21.2188 189.766 22.0625C190.141 23.5 191.094 24.2188 192.625 24.2188C193.562 24.2188 194.297 23.9531 194.828 23.4219C195.578 22.5781 195.953 20.5781 195.953 17.4219C195.953 15.3594 195.844 13.8906 195.625 13.0156C195.219 11.5781 194.234 10.8594 192.672 10.8594C191.703 10.8594 190.969 11.1406 190.469 11.7031C189.781 12.5156 189.438 14.4688 189.438 17.5625ZM192.859 9.64062C195.047 9.64062 196.891 10.1094 198.391 11.0469C198.516 10.7031 198.656 10.3594 198.812 10.0156C199.719 8.14062 200.984 7.20312 202.609 7.20312C203.203 7.20312 203.75 7.3125 204.25 7.53125C205.344 8 205.891 8.79688 205.891 9.92188C205.891 10.0781 205.875 10.2344 205.844 10.3906C205.625 11.2656 205.047 11.7031 204.109 11.7031C203.703 11.7031 203.266 11.5156 202.797 11.1406C202.203 10.6094 201.703 10.3438 201.297 10.3438C200.547 10.375 199.891 10.8281 199.328 11.7031C201.016 13.1719 201.875 15.0469 201.906 17.3281C201.906 19.0156 201.406 20.5469 200.406 21.9219C198.656 24.2656 196.062 25.4375 192.625 25.4375L187.609 25.3906C187.484 25.3906 187.359 25.4062 187.234 25.4375C186.453 25.5312 186.062 25.9375 186.062 26.6562C186.062 26.75 186.078 26.8438 186.109 26.9375C186.266 27.625 186.75 27.9844 187.562 28.0156L197.266 28.2031C197.703 28.2031 198.125 28.2344 198.531 28.2969C201.969 28.7344 203.688 30.5312 203.688 33.6875C203.688 34.5 203.453 35.2812 202.984 36.0312C201.484 38.4375 198.172 39.6406 193.047 39.6406C190.922 39.6406 189.109 39.3594 187.609 38.7969C185.391 37.9531 184.281 36.6875 184.281 35C184.281 34.0625 184.688 33.1094 185.5 32.1406C184.375 31.2031 183.797 29.9844 183.766 28.4844C183.766 27.8594 183.891 27.2344 184.141 26.6094C184.859 24.9531 186.141 24.1406 187.984 24.1719H188.031C187.594 23.9219 187.172 23.6406 186.766 23.3281C184.578 21.6406 183.484 19.6719 183.484 17.4219C183.484 15.8281 183.953 14.3906 184.891 13.1094C186.578 10.7969 189.234 9.64062 192.859 9.64062ZM193.047 38.375C194.516 38.375 195.859 38.25 197.078 38C199.984 37.4375 201.438 36.4219 201.438 34.9531C201.438 34.6406 201.375 34.375 201.25 34.1562C200.938 33.5938 199.875 33.3125 198.062 33.3125L188.594 33.2188C187.906 33.2188 187.25 33.0938 186.625 32.8438C186.156 33.5 185.922 34.1562 185.922 34.8125C185.922 35.1562 186 35.5 186.156 35.8438C186.938 37.5312 189.234 38.375 193.047 38.375ZM217.094 10.8594C214.594 10.9531 213.234 13.5938 213.016 18.7812L216.016 18.9219C217.266 18.9844 218.203 18.9062 218.828 18.6875C219.703 18.3438 220.141 17.4375 220.141 15.9688C220.109 12.625 219.094 10.9219 217.094 10.8594ZM225.859 25.6719C225.672 26.1719 225.422 26.6562 225.109 27.125C223.516 29.6875 220.891 30.9688 217.234 30.9688C215.172 30.9688 213.328 30.5469 211.703 29.7031C208.297 27.9219 206.594 24.7656 206.594 20.2344C206.594 17.4531 207.344 15.125 208.844 13.25C210.812 10.8438 213.562 9.64062 217.094 9.64062C219.031 9.64062 220.766 9.96875 222.297 10.625C225.016 11.8438 226.375 13.7812 226.375 16.4375C226.375 16.9688 226.281 17.4531 226.094 17.8906C225.281 19.6406 222.359 20.4375 217.328 20.2812L213.016 20.1406C213.047 21.9531 213.203 23.5156 213.484 24.8281C214.203 28.0156 215.812 29.6094 218.312 29.6094C219.094 29.6094 219.859 29.4688 220.609 29.1875C222.484 28.5 223.859 27.2031 224.734 25.2969L225.859 25.6719ZM273.812 2.375V3.64062H270.062V29.2344H272.547C273.203 29.2969 273.625 29.7188 273.812 30.5H259.984V29.2344H263.734V6.96875L253.656 30.9688H252.812L242.828 11.5625V29.2344H245.312C245.969 29.2969 246.391 29.7188 246.578 30.5H237.109V29.2344H240.859V3.64062H237.109V2.375H245.5L255.344 22.5312L263.734 2.375H273.812ZM285.859 29.2812C286.047 29.2812 286.219 29.2969 286.375 29.3281C286.781 29.3906 286.984 29.7812 286.984 30.5H275.453V29.2812C275.859 29.2812 276.219 29.25 276.531 29.1875C277.625 29 278.172 28.2188 278.172 26.8438V11.5625H275.453V10.3438H284.125V29.2812H285.859ZM284.547 4.20312C284.547 4.79687 284.391 5.35937 284.078 5.89062C283.422 7.04688 282.406 7.625 281.031 7.625C280.469 7.625 279.922 7.48438 279.391 7.20312C278.172 6.57812 277.562 5.57812 277.562 4.20312C277.562 3.60938 277.703 3.04688 277.984 2.51562C278.672 1.29688 279.688 0.6875 281.031 0.6875C281.625 0.6875 282.188 0.84375 282.719 1.15625C283.938 1.8125 284.547 2.82812 284.547 4.20312ZM298.703 29.2812C298.891 29.2812 299.062 29.2969 299.219 29.3281C299.625 29.3906 299.828 29.7812 299.828 30.5H288.859V29.2812C289.109 29.2812 289.344 29.2656 289.562 29.2344C290.906 29.0781 291.578 28.2812 291.578 26.8438V11.5625H288.859V10.3438H297.203L297.438 14C297.719 13.4375 298.094 12.8906 298.562 12.3594C300.156 10.5469 302.094 9.64062 304.375 9.64062C305.188 9.64062 305.969 9.76562 306.719 10.0156C309.469 10.9844 310.844 13.4062 310.844 17.2812V29.2812H312.391C312.578 29.2812 312.766 29.2969 312.953 29.3281C313.359 29.3906 313.562 29.7812 313.562 30.5H302.734V29.2812C303.172 29.2812 303.547 29.2344 303.859 29.1406C304.547 28.9219 304.891 28.1562 304.891 26.8438V16.4844C304.891 16.0469 304.859 15.625 304.797 15.2188C304.484 13.125 303.438 12.0781 301.656 12.0781C301.188 12.0781 300.734 12.1875 300.297 12.4062C298.703 13.1875 297.797 14.8125 297.578 17.2812L297.531 29.2812H298.703ZM325.844 29.2812C326.031 29.2812 326.203 29.2969 326.359 29.3281C326.766 29.3906 326.969 29.7812 326.969 30.5H315.438V29.2812C315.844 29.2812 316.203 29.25 316.516 29.1875C317.609 29 318.156 28.2188 318.156 26.8438V11.5625H315.438V10.3438H324.109V29.2812H325.844ZM324.531 4.20312C324.531 4.79687 324.375 5.35937 324.062 5.89062C323.406 7.04688 322.391 7.625 321.016 7.625C320.453 7.625 319.906 7.48438 319.375 7.20312C318.156 6.57812 317.547 5.57812 317.547 4.20312C317.547 3.60938 317.688 3.04688 317.969 2.51562C318.656 1.29688 319.672 0.6875 321.016 0.6875C321.609 0.6875 322.172 0.84375 322.703 1.15625C323.922 1.8125 324.531 2.82812 324.531 4.20312ZM338.688 29.2812C338.875 29.2812 339.047 29.2969 339.203 29.3281C339.609 29.3906 339.812 29.7812 339.812 30.5H328.844V29.2812C329.094 29.2812 329.328 29.2656 329.547 29.2344C330.891 29.0781 331.562 28.2812 331.562 26.8438V11.5625H328.844V10.3438H337.188L337.422 14C337.703 13.4375 338.078 12.8906 338.547 12.3594C340.141 10.5469 342.078 9.64062 344.359 9.64062C345.172 9.64062 345.953 9.76562 346.703 10.0156C349.453 10.9844 350.828 13.4062 350.828 17.2812V29.2812H352.375C352.562 29.2812 352.75 29.2969 352.938 29.3281C353.344 29.3906 353.547 29.7812 353.547 30.5H342.719V29.2812C343.156 29.2812 343.531 29.2344 343.844 29.1406C344.531 28.9219 344.875 28.1562 344.875 26.8438V16.4844C344.875 16.0469 344.844 15.625 344.781 15.2188C344.469 13.125 343.422 12.0781 341.641 12.0781C341.172 12.0781 340.719 12.1875 340.281 12.4062C338.688 13.1875 337.781 14.8125 337.562 17.2812L337.516 29.2812H338.688ZM362.219 17.5625C362.219 19.7188 362.328 21.2188 362.547 22.0625C362.922 23.5 363.875 24.2188 365.406 24.2188C366.344 24.2188 367.078 23.9531 367.609 23.4219C368.359 22.5781 368.734 20.5781 368.734 17.4219C368.734 15.3594 368.625 13.8906 368.406 13.0156C368 11.5781 367.016 10.8594 365.453 10.8594C364.484 10.8594 363.75 11.1406 363.25 11.7031C362.562 12.5156 362.219 14.4688 362.219 17.5625ZM365.641 9.64062C367.828 9.64062 369.672 10.1094 371.172 11.0469C371.297 10.7031 371.438 10.3594 371.594 10.0156C372.5 8.14062 373.766 7.20312 375.391 7.20312C375.984 7.20312 376.531 7.3125 377.031 7.53125C378.125 8 378.672 8.79688 378.672 9.92188C378.672 10.0781 378.656 10.2344 378.625 10.3906C378.406 11.2656 377.828 11.7031 376.891 11.7031C376.484 11.7031 376.047 11.5156 375.578 11.1406C374.984 10.6094 374.484 10.3438 374.078 10.3438C373.328 10.375 372.672 10.8281 372.109 11.7031C373.797 13.1719 374.656 15.0469 374.688 17.3281C374.688 19.0156 374.188 20.5469 373.188 21.9219C371.438 24.2656 368.844 25.4375 365.406 25.4375L360.391 25.3906C360.266 25.3906 360.141 25.4062 360.016 25.4375C359.234 25.5312 358.844 25.9375 358.844 26.6562C358.844 26.75 358.859 26.8438 358.891 26.9375C359.047 27.625 359.531 27.9844 360.344 28.0156L370.047 28.2031C370.484 28.2031 370.906 28.2344 371.312 28.2969C374.75 28.7344 376.469 30.5312 376.469 33.6875C376.469 34.5 376.234 35.2812 375.766 36.0312C374.266 38.4375 370.953 39.6406 365.828 39.6406C363.703 39.6406 361.891 39.3594 360.391 38.7969C358.172 37.9531 357.062 36.6875 357.062 35C357.062 34.0625 357.469 33.1094 358.281 32.1406C357.156 31.2031 356.578 29.9844 356.547 28.4844C356.547 27.8594 356.672 27.2344 356.922 26.6094C357.641 24.9531 358.922 24.1406 360.766 24.1719H360.812C360.375 23.9219 359.953 23.6406 359.547 23.3281C357.359 21.6406 356.266 19.6719 356.266 17.4219C356.266 15.8281 356.734 14.3906 357.672 13.1094C359.359 10.7969 362.016 9.64062 365.641 9.64062ZM365.828 38.375C367.297 38.375 368.641 38.25 369.859 38C372.766 37.4375 374.219 36.4219 374.219 34.9531C374.219 34.6406 374.156 34.375 374.031 34.1562C373.719 33.5938 372.656 33.3125 370.844 33.3125L361.375 33.2188C360.688 33.2188 360.031 33.0938 359.406 32.8438C358.938 33.5 358.703 34.1562 358.703 34.8125C358.703 35.1562 358.781 35.5 358.938 35.8438C359.719 37.5312 362.016 38.375 365.828 38.375Z" fill="#1F1F1F"/>
</svg>
